<svg width="472" height="472" viewBox="0 0 472 472" fill="none" xmlns="http://www.w3.org/2000/svg">
<path d="M421.326 338.103L183.306 200.694C179.237 198.344 172.601 198.353 168.532 200.694L34.3429 278.187C28.8299 281.369 28.8205 286.58 34.3429 289.761L270.598 426.15C272.617 427.172 274.848 427.704 277.111 427.704C279.374 427.704 281.606 427.172 283.625 426.15L421.326 346.637C425.395 344.286 425.395 340.454 421.326 338.103Z" fill="#EBEBEB"/>
<path d="M205.264 127.714L410.565 316.457C415.719 321.177 414.784 326.077 414.01 330.447C413.236 334.818 410.584 340.784 405.75 343.616L281.973 415.039C277.14 417.824 270.192 417.305 266.463 413.878L61.1714 225.135C57.3954 221.708 57.3954 216.422 58.1695 212.042C58.9436 207.661 61.1431 200.817 65.9858 198.023L189.744 126.562C194.596 123.768 200.072 122.937 205.264 127.714Z" fill="#37474F"/>
<path d="M198.533 133.312L71.2534 206.793L277.442 396.301L273.807 416.795C271.105 416.659 268.523 415.633 266.463 413.878L61.1714 225.135C57.3954 221.708 57.3954 216.421 58.1695 212.041C58.9436 207.661 61.1431 200.817 65.9858 198.023L189.744 126.562C192.765 124.816 196.352 123.645 200.043 124.674L199.939 125.307L198.533 133.312Z" fill="#263238"/>
<path d="M408.365 317.467L203.423 129.045C200.458 126.326 194.927 125.92 191.085 128.101L70.2525 197.872C65.0511 200.864 64.0788 206.368 68.0813 210.021L271.759 397.292C274.364 399.68 279.264 400.048 282.643 398.085L406.779 326.426C410.64 324.217 411.329 320.186 408.365 317.467Z" fill="#455A64"/>
<path d="M124.145 266.435C124.929 267.328 125.504 268.384 125.831 269.527C126.157 270.669 126.226 271.87 126.033 273.043C126 273.474 125.872 273.894 125.658 274.27C125.444 274.647 125.15 274.973 124.797 275.223C124.381 275.45 122.805 276.394 122.38 276.63C122.019 276.799 121.611 276.844 121.222 276.756C120.832 276.669 120.483 276.455 120.228 276.148L103.916 261.148C103.131 260.256 102.554 259.2 102.227 258.057C101.901 256.914 101.833 255.713 102.028 254.54C102.066 254.124 102.189 253.721 102.389 253.354C102.588 252.987 102.86 252.665 103.189 252.407C103.623 252.133 105.256 251.198 105.681 250.953C106.042 250.784 106.45 250.739 106.839 250.826C107.229 250.913 107.578 251.127 107.833 251.434L124.145 266.435Z" fill="#455A64"/>
<path d="M121.776 267.822L105.454 252.822C103.982 251.472 102.462 252.237 102.056 254.54C101.863 255.713 101.932 256.913 102.259 258.056C102.585 259.199 103.161 260.255 103.944 261.148L120.266 276.148C121.738 277.498 123.258 276.734 123.664 274.43C123.862 273.258 123.795 272.056 123.468 270.913C123.142 269.769 122.563 268.713 121.776 267.822Z" fill="#37474F"/>
<path d="M95.5803 240.182C96.3659 241.074 96.9429 242.13 97.2695 243.273C97.5961 244.416 97.664 245.617 97.4683 246.79C97.4322 247.221 97.3019 247.639 97.0866 248.014C96.8712 248.389 96.5762 248.712 96.2222 248.961L93.8056 250.377C93.4449 250.542 93.04 250.585 92.6529 250.498C92.2658 250.411 91.9179 250.199 91.6627 249.896L75.3787 234.895C74.5948 234.002 74.0189 232.946 73.6924 231.804C73.3659 230.661 73.297 229.46 73.4907 228.287C73.5173 227.877 73.6273 227.476 73.8139 227.109C74.0005 226.742 74.2599 226.417 74.5763 226.154C75.0105 225.88 76.6436 224.936 77.0684 224.7C77.4289 224.53 77.8357 224.484 78.2251 224.569C78.6145 224.655 78.9647 224.867 79.2208 225.172L95.5803 240.182Z" fill="#455A64"/>
<path d="M93.1732 241.569L76.8515 226.56C75.3883 225.21 73.859 225.975 73.4531 228.268C73.2594 229.441 73.3283 230.642 73.6548 231.785C73.9813 232.927 74.5572 233.983 75.3411 234.876L91.6628 249.877C93.126 251.227 94.6459 250.452 95.0612 248.159C95.254 246.989 95.1846 245.791 94.8581 244.652C94.5316 243.512 93.9562 242.459 93.1732 241.569Z" fill="#37474F"/>
<path d="M206.736 139.202L398.104 315.155C400.936 317.751 400.256 321.593 396.593 323.651L284.257 388.494C280.604 390.618 275.346 390.231 272.505 387.625L79.7869 210.512C79.2604 210.081 78.8322 209.542 78.5308 208.932C78.2295 208.322 78.062 207.654 78.0397 206.974C78.0173 206.294 78.1406 205.616 78.4013 204.988C78.6619 204.359 79.0539 203.793 79.5509 203.328C79.7209 203.158 79.8719 202.998 80.0513 202.837C80.4409 202.513 80.8578 202.222 81.2973 201.969L112.893 183.731L114.951 182.541C115.517 182.221 116.166 182.076 116.814 182.125C117.463 182.174 118.083 182.414 118.595 182.815C119.137 183.212 119.783 183.442 120.454 183.476C121.126 183.509 121.792 183.345 122.371 183.004L159.187 161.745C160.386 161.047 160.678 159.857 159.8 159.026C159.626 158.833 159.498 158.603 159.426 158.353C159.354 158.102 159.34 157.839 159.385 157.583C159.429 157.327 159.531 157.084 159.684 156.873C159.836 156.662 160.034 156.488 160.263 156.364L191.17 138.523L191.821 138.145C196.465 135.426 203.158 135.936 206.736 139.202Z" fill="black"/>
<path d="M117.661 188.026C117.148 187.626 116.527 187.388 115.879 187.341C115.23 187.294 114.582 187.44 114.017 187.762L111.959 188.951L80.3631 207.189C79.9235 207.442 79.5066 207.733 79.117 208.058C78.9377 208.209 78.7866 208.379 78.6167 208.539C78.4468 208.7 78.5317 208.662 78.4751 208.719C78.7915 209.396 79.2372 210.005 79.7873 210.512L272.533 387.673C275.365 390.278 280.633 390.665 284.286 388.541L396.622 323.698C397.328 323.299 397.966 322.789 398.51 322.187C398.195 321.517 397.749 320.917 397.198 320.422L205.792 144.432C202.233 141.147 195.541 140.656 190.915 143.318L190.264 143.705L160.169 161.075L159.376 165.531C159.304 165.828 159.169 166.107 158.98 166.348C158.791 166.589 158.553 166.787 158.281 166.928L121.465 188.177C120.887 188.532 120.217 188.707 119.54 188.68C118.862 188.654 118.208 188.426 117.661 188.026Z" fill="#263238"/>
<path d="M167.258 195.89L165.455 194.238C165.121 193.948 164.709 193.764 164.27 193.709C163.832 193.653 163.387 193.729 162.991 193.926L160.565 195.323C160.401 195.406 160.261 195.529 160.158 195.682C160.055 195.834 159.994 196.011 159.98 196.194C159.966 196.377 159.999 196.561 160.077 196.728C160.154 196.895 160.274 197.038 160.424 197.145L162.227 198.797C162.101 198.861 161.994 198.955 161.915 199.072C161.837 199.189 161.79 199.324 161.778 199.464C161.767 199.604 161.792 199.745 161.85 199.873C161.909 200.001 162 200.111 162.113 200.194L165.748 203.527C166.003 203.75 166.318 203.893 166.654 203.937C166.991 203.98 167.332 203.923 167.636 203.772L172.715 200.846C172.84 200.781 172.946 200.686 173.024 200.569C173.101 200.452 173.147 200.316 173.158 200.176C173.168 200.036 173.143 199.895 173.083 199.768C173.024 199.641 172.933 199.531 172.818 199.448L169.193 196.116C168.932 195.887 168.607 195.742 168.261 195.702C167.915 195.662 167.566 195.727 167.258 195.89ZM160.971 196.834C160.887 196.772 160.82 196.69 160.776 196.596C160.732 196.501 160.713 196.397 160.721 196.293C160.728 196.19 160.762 196.089 160.819 196.002C160.876 195.915 160.955 195.844 161.047 195.795L163.473 194.398C163.698 194.284 163.953 194.24 164.204 194.272C164.454 194.304 164.69 194.41 164.879 194.577L166.682 196.229L162.765 198.486L160.971 196.834Z" fill="#FAFAFA"/>
<path d="M177.906 248.772C178.293 249.131 178.237 249.461 177.736 249.716L177.076 250.094C176.877 250.24 176.633 250.31 176.388 250.293C176.142 250.276 175.911 250.172 175.735 250L159.895 235.434L157.384 242.363C157.204 242.816 156.817 242.986 156.213 242.882L155.458 242.759C155.227 242.732 155.014 242.625 154.854 242.457C154.792 242.386 154.751 242.298 154.738 242.204C154.724 242.11 154.738 242.014 154.778 241.928L157.761 233.678C157.821 233.521 157.918 233.382 158.044 233.272C158.18 233.169 158.322 233.074 158.469 232.989L159.121 232.611C159.322 232.466 159.567 232.397 159.815 232.416C160.062 232.435 160.294 232.541 160.471 232.715L177.906 248.772Z" fill="#FAFAFA"/>
<path d="M170.071 234.197C169.484 233.617 169.008 232.936 168.665 232.186C168.31 231.426 168.16 230.587 168.23 229.751C168.334 228.822 168.679 227.937 169.231 227.183C169.987 226.178 170.954 225.35 172.063 224.757C173.236 224.059 174.51 223.547 175.839 223.237C176.974 222.996 178.139 222.929 179.294 223.039C180.335 223.152 181.35 223.439 182.296 223.888C183.173 224.318 183.987 224.868 184.713 225.522C185.702 226.359 186.399 227.49 186.704 228.75C186.922 230.099 186.855 231.479 186.506 232.8L184.779 243.269L196.352 236.604C196.561 236.453 196.817 236.38 197.074 236.399C197.332 236.418 197.574 236.528 197.759 236.708L198.155 237.076C198.552 237.435 198.476 237.765 197.947 238.067L183.787 246.233C183.585 246.375 183.34 246.442 183.094 246.423C182.848 246.404 182.616 246.3 182.437 246.129L182.041 245.761C181.87 245.607 181.753 245.402 181.711 245.176C181.674 244.859 181.7 244.538 181.786 244.232L183.825 232.743C183.986 232.066 184.099 231.378 184.165 230.685C184.208 230.164 184.177 229.64 184.071 229.128C183.974 228.681 183.791 228.258 183.533 227.882C182.942 227.057 182.181 226.369 181.302 225.864C180.422 225.359 179.445 225.049 178.435 224.955C176.746 224.877 175.073 225.315 173.639 226.211C172.053 227.155 171.157 228.165 170.968 229.326C170.889 229.957 170.951 230.598 171.15 231.202C171.349 231.806 171.68 232.358 172.12 232.819C172.197 232.898 172.252 232.997 172.277 233.106C172.302 233.214 172.296 233.327 172.261 233.432C172.203 233.6 172.09 233.743 171.94 233.838L171.251 234.235C171.079 234.363 170.869 234.43 170.654 234.423C170.44 234.416 170.234 234.336 170.071 234.197Z" fill="#FAFAFA"/>
<path d="M196.446 224.144C196.524 224.203 196.584 224.283 196.619 224.375C196.654 224.467 196.663 224.566 196.645 224.663C196.612 224.766 196.56 224.862 196.49 224.944C196.421 225.027 196.335 225.095 196.239 225.144L194.577 226.088C194.378 226.233 194.134 226.302 193.888 226.282C193.642 226.263 193.412 226.158 193.237 225.984L191.962 224.814C191.882 224.753 191.819 224.672 191.78 224.579C191.74 224.487 191.725 224.385 191.736 224.285C191.755 224.183 191.798 224.086 191.863 224.004C191.927 223.922 192.009 223.857 192.104 223.813L193.765 222.869C193.988 222.738 194.245 222.679 194.502 222.699C194.751 222.708 194.988 222.805 195.172 222.973L196.446 224.144ZM205.792 232.696C205.868 232.757 205.927 232.837 205.962 232.929C205.997 233.02 206.007 233.119 205.99 233.215C205.959 233.32 205.906 233.418 205.834 233.501C205.763 233.584 205.674 233.651 205.575 233.697L203.923 234.641C203.723 234.785 203.479 234.854 203.234 234.835C202.988 234.816 202.757 234.71 202.582 234.537L201.308 233.366C201.228 233.305 201.165 233.224 201.124 233.132C201.083 233.039 201.065 232.939 201.072 232.838C201.095 232.736 201.141 232.64 201.206 232.558C201.272 232.476 201.355 232.411 201.45 232.366L203.102 231.422C203.328 231.292 203.587 231.233 203.847 231.252C204.093 231.263 204.327 231.36 204.508 231.526L205.792 232.696Z" fill="#FAFAFA"/>
<path d="M206.538 205.263C206.748 205.114 207.003 205.043 207.26 205.062C207.517 205.081 207.759 205.189 207.945 205.367L208.341 205.735C208.438 205.815 208.504 205.925 208.53 206.047C208.544 206.15 208.544 206.255 208.53 206.358L207.831 216.591L208.52 216.195C209.637 215.54 210.825 215.015 212.06 214.628C213.181 214.272 214.349 214.087 215.525 214.08C216.637 214.08 217.74 214.278 218.782 214.666C219.851 215.081 220.831 215.696 221.67 216.478C222.477 217.148 223.09 218.022 223.445 219.008C223.71 219.85 223.71 220.753 223.445 221.595C223.132 222.536 222.605 223.392 221.906 224.096C221.055 224.978 220.079 225.728 219.008 226.324C217.806 227.032 216.518 227.584 215.176 227.967C214.007 228.297 212.802 228.478 211.588 228.505C210.549 228.526 209.511 228.392 208.511 228.108C207.673 227.871 206.895 227.459 206.227 226.9C206.155 226.849 206.1 226.778 206.07 226.695C206.039 226.612 206.035 226.523 206.057 226.437C206.128 226.254 206.266 226.106 206.444 226.022L206.925 225.739C207.124 225.63 207.342 225.56 207.567 225.531C207.899 225.503 208.231 225.586 208.511 225.767C209.231 226.181 210.027 226.448 210.852 226.551C211.632 226.637 212.42 226.615 213.193 226.485C213.965 226.362 214.72 226.146 215.44 225.843C216.134 225.575 216.809 225.26 217.46 224.899C218.264 224.452 219.006 223.903 219.669 223.265C220.193 222.772 220.596 222.165 220.849 221.491C221.058 220.879 221.058 220.215 220.849 219.603C220.598 218.87 220.155 218.217 219.565 217.715C218.995 217.148 218.315 216.703 217.566 216.409C216.818 216.116 216.017 215.978 215.213 216.006C213.43 216.14 211.704 216.7 210.182 217.639L207.142 219.395C206.943 219.54 206.698 219.608 206.453 219.589C206.207 219.57 205.977 219.465 205.802 219.291L205.405 218.933C205.283 218.829 205.188 218.696 205.131 218.545C205.093 218.42 205.074 218.29 205.075 218.158L205.717 208.124L195.333 214.137C195.132 214.282 194.886 214.351 194.639 214.332C194.392 214.313 194.159 214.207 193.983 214.033L193.586 213.665C193.18 213.287 193.228 212.957 193.737 212.664L206.538 205.263Z" fill="#FAFAFA"/>
<path d="M238.379 213.854C238.776 214.213 238.719 214.543 238.209 214.798L237.558 215.176C237.357 215.321 237.111 215.39 236.864 215.371C236.617 215.352 236.384 215.246 236.208 215.072L220.368 200.506L217.866 207.435C217.774 207.654 217.602 207.831 217.384 207.929C217.167 208.027 216.921 208.039 216.695 207.963L215.94 207.841C215.705 207.813 215.488 207.702 215.327 207.529C215.266 207.457 215.227 207.369 215.214 207.276C215.201 207.182 215.214 207.087 215.251 207.001L218.234 198.75C218.295 198.594 218.396 198.457 218.527 198.354C218.653 198.242 218.792 198.147 218.942 198.07L219.603 197.683C219.803 197.541 220.047 197.473 220.292 197.492C220.537 197.511 220.768 197.615 220.943 197.787L238.379 213.854Z" fill="#FAFAFA"/>
<path d="M179.105 276.894L267.464 225.918C269.843 224.549 273.26 224.795 275.091 226.484L293.386 243.307C295.217 244.987 294.783 247.47 292.442 248.848L204.074 299.824C202.889 300.492 201.532 300.795 200.175 300.694C198.817 300.593 197.52 300.093 196.447 299.257L178.152 282.435C176.283 280.755 176.726 278.272 179.105 276.894Z" fill="#455A64"/>
<path d="M212.06 307.206L300.428 256.23C301.613 255.558 302.97 255.253 304.328 255.354C305.686 255.455 306.984 255.957 308.056 256.796L326.351 273.609C328.182 275.299 327.738 277.781 325.407 279.15L237.048 330.173C234.669 331.542 231.252 331.287 229.421 329.597L211.079 312.747C209.247 311.057 209.682 308.575 212.06 307.206Z" fill="#455A64"/>
<path d="M245.025 337.518L333.383 286.494C334.57 285.827 335.929 285.524 337.287 285.625C338.646 285.726 339.944 286.225 341.02 287.061L359.305 303.883C361.146 305.573 360.702 308.055 358.361 309.424L270.003 360.4C268.819 361.073 267.461 361.379 266.103 361.278C264.745 361.177 263.447 360.674 262.375 359.834L244.081 343.021C242.202 341.369 242.608 338.896 245.025 337.518Z" fill="#455A64"/>
<path d="M122.636 174.819L139.505 165.068C139.986 164.781 140.541 164.643 141.101 164.671C141.66 164.7 142.199 164.894 142.648 165.228C143.375 165.899 143.149 166.918 142.148 167.494L125.269 177.245C124.788 177.533 124.233 177.671 123.673 177.642C123.114 177.614 122.575 177.42 122.126 177.085C121.399 176.415 121.625 175.395 122.636 174.819Z" fill="#263238"/>
<path d="M147.632 159.583C148.196 159.261 148.843 159.114 149.49 159.161C150.137 159.209 150.756 159.447 151.267 159.848C151.47 160.025 151.625 160.252 151.715 160.506C151.805 160.76 151.828 161.034 151.782 161.3C151.735 161.566 151.621 161.815 151.449 162.024C151.278 162.232 151.056 162.393 150.804 162.491C150.239 162.812 149.591 162.959 148.942 162.912C148.293 162.865 147.673 162.626 147.16 162.226C146.957 162.049 146.803 161.821 146.714 161.566C146.624 161.311 146.602 161.037 146.649 160.771C146.697 160.505 146.812 160.256 146.985 160.048C147.157 159.84 147.38 159.68 147.632 159.583Z" fill="#263238"/>
<g opacity="0.15">
<path d="M285.381 211.513L260.941 189.045L210.635 330.749L235.075 353.216L285.381 211.513Z" fill="white"/>
<path d="M358.815 285.154L317.383 247.064L268.71 384.208L272.533 387.72C275.365 390.325 280.633 390.712 284.286 388.588L331.854 361.127L358.815 285.154Z" fill="white"/>
<path d="M188.394 310.302L238.7 168.608L206.736 139.202C203.177 135.927 196.484 135.426 191.859 138.098L191.208 138.475L172.564 149.228L133.34 259.676L188.394 310.302Z" fill="white"/>
</g>
<path d="M111.468 205.509C111.411 205.493 111.36 205.464 111.317 205.424L110.835 204.98L109.306 205.858C109.274 205.884 109.234 205.898 109.193 205.898C109.152 205.898 109.112 205.884 109.08 205.858L108.9 205.688C108.87 205.665 108.844 205.636 108.825 205.603V205.499L108.702 202.95C108.696 202.916 108.696 202.881 108.702 202.847C108.725 202.813 108.758 202.786 108.796 202.771L109.004 202.648C109.058 202.616 109.12 202.6 109.183 202.601C109.246 202.614 109.302 202.647 109.344 202.696L111.053 204.263L111.383 204.064C111.433 204.03 111.492 204.013 111.553 204.017C111.613 204.03 111.669 204.059 111.713 204.102L111.827 204.215C111.848 204.229 111.866 204.246 111.879 204.268C111.892 204.289 111.9 204.313 111.902 204.338C111.902 204.338 111.902 204.414 111.798 204.442L111.468 204.64L111.959 205.093C111.959 205.093 112.034 205.178 112.025 205.216C112.016 205.241 112.003 205.264 111.985 205.284C111.967 205.303 111.945 205.319 111.921 205.329L111.657 205.48C111.599 205.511 111.532 205.521 111.468 205.509ZM110.524 204.565L109.306 203.451L109.419 205.207L110.524 204.565Z" fill="#FAFAFA"/>
<path d="M112.987 204.187C112.393 204.103 111.841 203.832 111.411 203.413C111.208 203.263 111.042 203.069 110.926 202.845C110.809 202.62 110.746 202.373 110.741 202.12C110.781 201.88 110.881 201.654 111.031 201.463C111.181 201.272 111.376 201.121 111.6 201.025C111.815 200.901 112.043 200.8 112.279 200.723C112.488 200.659 112.704 200.621 112.921 200.61C112.952 200.599 112.985 200.599 113.016 200.61C113.022 200.628 113.022 200.648 113.016 200.666L113.091 200.95C113.098 200.959 113.102 200.971 113.102 200.983C113.102 200.994 113.098 201.006 113.091 201.016H113.016C112.683 201.039 112.36 201.139 112.072 201.308C111.918 201.375 111.784 201.479 111.682 201.611C111.58 201.743 111.513 201.898 111.486 202.063C111.498 202.249 111.55 202.431 111.64 202.594C111.729 202.757 111.855 202.898 112.006 203.007C112.317 203.317 112.716 203.525 113.148 203.602C113.534 203.649 113.925 203.57 114.262 203.376C114.38 203.301 114.494 203.219 114.602 203.13C114.69 203.061 114.766 202.978 114.828 202.885L114.035 202.158L113.393 202.526C113.339 202.548 113.278 202.548 113.223 202.526C113.194 202.524 113.165 202.515 113.139 202.5C113.113 202.485 113.09 202.465 113.072 202.441L112.959 202.337C112.902 202.29 112.874 202.252 112.884 202.214C112.893 202.177 112.884 202.148 112.987 202.111L113.998 201.525C114.055 201.486 114.126 201.469 114.196 201.478C114.269 201.49 114.335 201.527 114.385 201.582L115.517 202.62C115.549 202.646 115.575 202.678 115.593 202.715C115.6 202.728 115.603 202.743 115.603 202.757C115.603 202.772 115.6 202.787 115.593 202.8C115.39 203.209 115.058 203.54 114.649 203.744C114.159 204.071 113.575 204.227 112.987 204.187Z" fill="#FAFAFA"/>
<path d="M125.656 196.607C125.743 196.685 125.809 196.783 125.847 196.893C125.885 197.004 125.894 197.122 125.873 197.237C125.852 197.351 125.802 197.459 125.728 197.549C125.653 197.638 125.557 197.707 125.448 197.749C125.204 197.885 124.925 197.945 124.646 197.924C124.368 197.902 124.102 197.798 123.881 197.627C123.794 197.55 123.728 197.452 123.69 197.343C123.651 197.233 123.642 197.115 123.663 197.001C123.684 196.887 123.735 196.78 123.809 196.691C123.884 196.602 123.98 196.534 124.089 196.494C124.332 196.355 124.611 196.291 124.89 196.311C125.169 196.331 125.436 196.434 125.656 196.607Z" fill="#FAFAFA"/>
<path d="M122.966 195.465C122.577 195.634 122.257 195.929 122.057 196.302C121.857 196.676 121.788 197.106 121.861 197.523C121.895 197.608 121.956 197.679 122.034 197.727C122.113 197.775 122.204 197.796 122.295 197.787C122.569 197.787 122.777 197.598 122.73 197.409C122.682 197.116 122.732 196.815 122.871 196.552C123.011 196.289 123.233 196.08 123.504 195.956C124.156 195.609 124.918 195.531 125.628 195.739C125.737 195.78 125.858 195.779 125.968 195.738C126.077 195.696 126.168 195.616 126.222 195.512C126.279 195.361 126.175 195.21 125.977 195.153C125.48 195.002 124.957 194.952 124.44 195.006C123.923 195.059 123.422 195.215 122.966 195.465Z" fill="#FAFAFA"/>
<path d="M121.88 194.464C121.304 194.732 120.823 195.167 120.498 195.713C120.173 196.258 120.02 196.889 120.058 197.523C120.058 197.693 120.256 197.815 120.492 197.815C120.757 197.815 120.955 197.646 120.936 197.457C120.902 196.941 121.025 196.428 121.288 195.983C121.55 195.539 121.941 195.184 122.409 194.965C123.532 194.348 124.846 194.176 126.09 194.483C126.199 194.516 126.315 194.511 126.42 194.468C126.525 194.425 126.612 194.347 126.666 194.247C126.723 194.087 126.591 193.926 126.373 193.879C124.855 193.506 123.252 193.715 121.88 194.464Z" fill="#FAFAFA"/>
<path d="M94.9951 215.562L94.0605 214.694L95.6842 213.759L96.6282 214.618L94.9951 215.562Z" fill="#FAFAFA"/>
<path d="M97.4398 214.146L95.5518 212.419L97.1849 211.484L99.0634 213.212L97.4398 214.146Z" fill="#FAFAFA"/>
<path d="M99.8753 212.74L97.0527 210.144L98.6859 209.209L101.508 211.805L99.8753 212.74Z" fill="#FAFAFA"/>
<path d="M102.32 211.333L98.5537 207.869L100.177 206.934L103.944 210.399L102.32 211.333Z" fill="#FAFAFA"/>
<path d="M201.365 149.624C201.07 149.553 200.76 149.587 200.487 149.719L194.408 153.221C194.011 153.447 194.021 153.919 194.408 154.288L196.116 155.864C196.37 156.078 196.676 156.222 197.004 156.279C197.145 156.298 197.287 156.298 197.428 156.279C197.587 156.273 197.741 156.231 197.882 156.157L203.961 152.655C204.357 152.428 204.348 151.956 203.961 151.588L202.252 150.011C201.999 149.8 201.692 149.666 201.365 149.624ZM197.022 156.025C196.88 155.997 196.748 155.928 196.645 155.826L194.936 154.25C194.634 153.976 194.625 153.608 194.936 153.438L201.016 149.936C201.09 149.9 201.17 149.877 201.252 149.87H201.393C201.533 149.897 201.661 149.966 201.761 150.068L203.479 151.635C203.772 151.909 203.782 152.286 203.479 152.456L197.4 155.949C197.289 156.023 197.153 156.05 197.022 156.025Z" fill="#FAFAFA"/>
<path d="M196.352 153.051L198.372 154.939L197.428 155.486C197.383 155.509 197.333 155.522 197.282 155.522C197.231 155.522 197.181 155.509 197.136 155.486L195.625 154.099C195.408 153.9 195.408 153.617 195.625 153.494L196.352 153.051Z" fill="#FAFAFA"/>
<path d="M196.815 152.796L197.957 152.135L199.977 153.995L198.835 154.656L196.815 152.796Z" fill="#FAFAFA"/>
<path d="M198.401 151.89L199.543 151.229L201.573 153.089L200.421 153.749L198.401 151.89Z" fill="#FAFAFA"/>
<path d="M201.261 150.436L202.715 151.776C202.989 152.022 202.866 152.343 202.394 152.616L202.016 152.834L199.987 150.946L200.931 150.426C200.984 150.406 201.04 150.396 201.097 150.398C201.154 150.399 201.21 150.412 201.261 150.436Z" fill="#FAFAFA"/>
<path d="M202.488 149.917C202.658 149.822 203.073 150.002 203.432 150.323L203.744 150.615C204.102 150.946 204.253 151.286 204.093 151.399L203.8 151.588L202.186 150.096L202.488 149.917Z" fill="#FAFAFA"/>
<path d="M185.619 159.999L190.603 155.741L192.114 159.848L189.395 158.649L185.619 159.999Z" fill="#FAFAFA"/>
<path d="M386.059 404.249L431.333 379.931L449.873 387.493L386.059 404.249Z" fill="#EE5253"/>
<g opacity="0.15">
<path d="M386.059 404.249L431.333 379.931L449.873 387.493L386.059 404.249Z" fill="white"/>
</g>
<path d="M386.059 404.248L425.744 376.013L418.192 365.809L386.059 404.248Z" fill="#EE5253"/>
<g opacity="0.15">
<path d="M386.059 404.248L425.744 376.013L418.192 365.809L386.059 404.248Z" fill="white"/>
</g>
<path d="M425.744 376.013L425.187 383.225L386.059 404.248L425.744 376.013Z" fill="#EE5253"/>
<g opacity="0.2">
<path d="M425.744 376.013L425.187 383.225L386.059 404.248L425.744 376.013Z" fill="black"/>
</g>
<path d="M431.408 375.315C431.353 375.32 431.297 375.315 431.243 375.298C431.19 375.282 431.14 375.256 431.097 375.22C430.996 375.136 430.929 375.017 430.908 374.887C430.887 374.757 430.914 374.624 430.984 374.512C431.248 374.106 431.503 373.7 431.758 373.295C431.787 373.24 431.828 373.193 431.877 373.156C431.927 373.12 431.984 373.095 432.045 373.083C432.105 373.071 432.168 373.073 432.228 373.088C432.287 373.104 432.343 373.132 432.39 373.172C432.492 373.254 432.56 373.369 432.583 373.498C432.605 373.626 432.581 373.759 432.513 373.87C432.258 374.286 431.994 374.701 431.729 375.107C431.696 375.164 431.649 375.213 431.594 375.249C431.538 375.285 431.474 375.308 431.408 375.315Z" fill="#455A64"/>
<path d="M434.627 369.972C434.527 369.984 434.425 369.957 434.344 369.896C434.235 369.81 434.164 369.686 434.145 369.549C434.125 369.412 434.16 369.272 434.24 369.16C434.703 368.329 435.184 367.489 435.581 366.639C435.606 366.585 435.643 366.536 435.689 366.496C435.735 366.457 435.789 366.428 435.847 366.411C435.905 366.394 435.966 366.389 436.026 366.398C436.086 366.406 436.143 366.428 436.194 366.46C436.305 366.532 436.384 366.642 436.417 366.77C436.451 366.897 436.435 367.033 436.374 367.149C435.939 368.005 435.486 368.855 435.014 369.698C434.985 369.778 434.933 369.847 434.864 369.896C434.795 369.944 434.712 369.971 434.627 369.972ZM438.035 363.09C437.95 363.095 437.865 363.075 437.79 363.033C437.678 362.965 437.595 362.858 437.555 362.734C437.515 362.609 437.522 362.474 437.573 362.354C437.96 361.476 438.328 360.588 438.677 359.701C438.697 359.643 438.728 359.59 438.77 359.545C438.811 359.5 438.861 359.465 438.918 359.441C438.974 359.417 439.034 359.405 439.095 359.406C439.156 359.407 439.216 359.42 439.272 359.446C439.388 359.509 439.476 359.611 439.522 359.735C439.567 359.858 439.565 359.994 439.517 360.116C439.159 361.013 438.79 361.919 438.394 362.807C438.365 362.885 438.314 362.954 438.247 363.004C438.18 363.054 438.1 363.084 438.016 363.09H438.035ZM440.763 355.831C440.698 355.849 440.63 355.849 440.565 355.831C440.447 355.775 440.354 355.678 440.303 355.557C440.253 355.437 440.249 355.303 440.291 355.179C440.584 354.235 440.858 353.291 441.103 352.347C441.117 352.287 441.143 352.23 441.181 352.18C441.218 352.13 441.265 352.089 441.32 352.059C441.374 352.028 441.434 352.01 441.496 352.004C441.558 351.999 441.62 352.006 441.679 352.026C441.799 352.075 441.897 352.167 441.953 352.284C442.009 352.401 442.019 352.535 441.981 352.659C441.726 353.603 441.443 354.547 441.15 355.491C441.129 355.581 441.081 355.662 441.011 355.723C440.942 355.784 440.855 355.821 440.763 355.831ZM442.651 348.279C442.605 348.288 442.556 348.288 442.51 348.279C442.388 348.238 442.285 348.154 442.221 348.042C442.157 347.931 442.135 347.8 442.16 347.674C442.349 346.73 442.51 345.786 442.651 344.786C442.657 344.723 442.675 344.663 442.706 344.608C442.736 344.553 442.777 344.505 442.827 344.467C442.876 344.429 442.933 344.401 442.994 344.386C443.055 344.371 443.118 344.369 443.18 344.38C443.305 344.415 443.413 344.496 443.482 344.605C443.552 344.715 443.579 344.846 443.558 344.975C443.416 345.919 443.246 346.919 443.057 347.901C443.041 347.984 443.002 348.061 442.946 348.124C442.889 348.187 442.817 348.234 442.736 348.26L442.651 348.279ZM443.68 340.472C443.653 340.481 443.623 340.481 443.595 340.472C443.469 340.451 443.356 340.382 443.279 340.281C443.202 340.179 443.166 340.051 443.18 339.924C443.246 338.98 443.293 337.97 443.312 336.988C443.312 336.862 443.362 336.741 443.45 336.651C443.538 336.561 443.658 336.509 443.784 336.507C443.912 336.521 444.029 336.584 444.112 336.683C444.194 336.781 444.236 336.907 444.228 337.036C444.228 338.027 444.162 339.037 444.086 340.019C444.081 340.12 444.043 340.217 443.979 340.295C443.914 340.373 443.826 340.429 443.727 340.453L443.68 340.472ZM443.727 332.57C443.601 332.568 443.479 332.517 443.39 332.427C443.3 332.337 443.248 332.216 443.246 332.089C443.246 331.324 443.142 330.55 443.076 329.786L443.01 329.153C443.001 329.091 443.004 329.027 443.019 328.965C443.034 328.904 443.062 328.846 443.099 328.795C443.137 328.744 443.185 328.701 443.239 328.669C443.293 328.636 443.353 328.615 443.416 328.606C443.479 328.602 443.542 328.611 443.601 328.631C443.66 328.652 443.715 328.685 443.761 328.727C443.808 328.769 443.846 328.82 443.872 328.877C443.899 328.934 443.914 328.996 443.916 329.059L443.982 329.701C444.058 330.484 444.115 331.268 444.152 332.042C444.164 332.159 444.132 332.275 444.062 332.37C443.992 332.464 443.89 332.529 443.775 332.552L443.727 332.57ZM442.783 324.707C442.663 324.715 442.544 324.676 442.45 324.599C442.357 324.522 442.297 324.412 442.283 324.292C442.113 323.348 441.915 322.404 441.707 321.412C441.672 321.289 441.687 321.156 441.749 321.043C441.811 320.93 441.914 320.845 442.038 320.808C442.099 320.795 442.162 320.794 442.223 320.806C442.284 320.817 442.343 320.842 442.394 320.877C442.445 320.913 442.489 320.959 442.522 321.012C442.555 321.065 442.576 321.124 442.585 321.186C442.802 322.13 443.01 323.14 443.18 324.122C443.206 324.247 443.184 324.377 443.117 324.486C443.05 324.594 442.944 324.674 442.821 324.707H442.783ZM440.895 317.032C440.787 317.038 440.68 317.007 440.593 316.943C440.505 316.879 440.442 316.788 440.414 316.683C440.131 315.739 439.819 314.795 439.47 313.908C439.424 313.787 439.424 313.653 439.471 313.533C439.518 313.412 439.609 313.314 439.725 313.256C439.783 313.236 439.845 313.227 439.907 313.23C439.968 313.234 440.029 313.25 440.084 313.277C440.139 313.304 440.189 313.342 440.229 313.389C440.27 313.436 440.301 313.49 440.32 313.549C440.659 314.493 440.98 315.437 441.264 316.381C441.31 316.504 441.306 316.64 441.253 316.76C441.2 316.88 441.102 316.974 440.98 317.023L440.895 317.032ZM438.063 309.716C437.968 309.719 437.875 309.694 437.794 309.643C437.713 309.593 437.649 309.52 437.61 309.433C437.204 308.565 436.761 307.696 436.308 306.846C436.244 306.733 436.224 306.6 436.251 306.473C436.279 306.346 436.353 306.233 436.459 306.157C436.511 306.125 436.57 306.104 436.631 306.096C436.692 306.088 436.754 306.093 436.813 306.111C436.872 306.129 436.926 306.159 436.973 306.2C437.019 306.24 437.056 306.29 437.082 306.346C437.554 307.205 438.026 308.093 438.413 308.98C438.473 309.096 438.487 309.231 438.452 309.357C438.417 309.483 438.335 309.591 438.224 309.66C438.209 309.67 438.193 309.679 438.177 309.688L438.063 309.716ZM434.24 302.948C434.16 302.955 434.079 302.94 434.007 302.903C433.935 302.866 433.875 302.81 433.834 302.74C433.306 301.947 432.749 301.164 432.182 300.408C432.101 300.306 432.061 300.176 432.07 300.045C432.078 299.914 432.135 299.792 432.23 299.7C432.274 299.658 432.327 299.626 432.385 299.606C432.443 299.586 432.505 299.579 432.566 299.586C432.627 299.592 432.686 299.611 432.738 299.643C432.791 299.674 432.837 299.716 432.871 299.766C433.457 300.541 434.023 301.343 434.561 302.155C434.636 302.262 434.668 302.393 434.651 302.523C434.633 302.652 434.568 302.77 434.467 302.853C434.434 302.885 434.395 302.91 434.354 302.929L434.24 302.948Z" fill="#455A64"/>
<path d="M69.5918 157.808L112.157 132.962L82.5246 165.549L69.5918 157.808Z" fill="#EE5253"/>
<path opacity="0.15" d="M69.5918 157.808L112.157 132.962L82.5246 165.549L69.5918 157.808Z" fill="white"/>
<path d="M112.157 132.962L64.6545 152.512L51.7217 144.771L112.157 132.962Z" fill="#EE5253"/>
<path opacity="0.15" d="M112.157 132.962L64.6545 152.512L51.7217 144.771L112.157 132.962Z" fill="white"/>
<path d="M64.6548 152.512L67.4679 164.728L69.5919 157.808L112.157 132.962L64.6548 152.512Z" fill="#EE5253"/>
<path opacity="0.2" d="M64.6548 152.512L67.4679 164.728L69.5919 157.808L112.157 132.962L64.6548 152.512Z" fill="black"/>
<path d="M67.4678 164.728L73.8964 160.385L69.5918 157.808L67.4678 164.728Z" fill="#EE5253"/>
<path opacity="0.2" d="M69.5918 157.808L73.8964 160.385L72.8769 161.074L69.5918 157.808Z" fill="black"/>
<path d="M57.9712 163.368C58.0786 163.399 58.172 163.466 58.2356 163.557C58.2991 163.672 58.3206 163.806 58.2965 163.935C58.2724 164.064 58.2041 164.181 58.1034 164.265L56.9612 165.153C56.9142 165.193 56.859 165.223 56.7994 165.24C56.7398 165.256 56.6772 165.26 56.616 165.25C56.5549 165.24 56.4966 165.217 56.4453 165.182C56.3941 165.147 56.351 165.102 56.3192 165.049C56.2526 164.936 56.2292 164.803 56.2535 164.674C56.2778 164.546 56.3482 164.431 56.4514 164.35L57.6031 163.406C57.6564 163.37 57.718 163.347 57.7824 163.34C57.8467 163.334 57.9116 163.343 57.9712 163.368Z" fill="#455A64"/>
<path d="M53.1662 167.333C53.267 167.355 53.3551 167.416 53.4116 167.503C53.4837 167.61 53.5148 167.739 53.4992 167.868C53.4836 167.996 53.4223 168.114 53.3267 168.201C52.6092 168.834 51.9012 169.476 51.2121 170.089C51.1722 170.135 51.1229 170.172 51.0676 170.197C51.0122 170.223 50.952 170.236 50.8911 170.236C50.8303 170.236 50.7701 170.223 50.7147 170.197C50.6594 170.172 50.6101 170.135 50.5702 170.089C50.4932 169.983 50.4575 169.853 50.4696 169.723C50.4818 169.592 50.541 169.471 50.6363 169.381C51.3348 168.72 52.0428 168.078 52.7697 167.437C52.8217 167.387 52.8853 167.352 52.9546 167.334C53.0239 167.316 53.0967 167.315 53.1662 167.333ZM47.6438 172.676C47.7277 172.692 47.8041 172.735 47.8609 172.799C47.9473 172.898 47.9948 173.025 47.9948 173.157C47.9948 173.289 47.9473 173.416 47.8609 173.516C47.2001 174.215 46.5582 174.922 45.9257 175.649C45.8858 175.695 45.8365 175.732 45.7812 175.758C45.7258 175.783 45.6656 175.796 45.6048 175.796C45.5439 175.796 45.4837 175.783 45.4283 175.758C45.373 175.732 45.3237 175.695 45.2838 175.649C45.1974 175.55 45.1499 175.422 45.1499 175.291C45.1499 175.159 45.1974 175.032 45.2838 174.932C45.9163 174.205 46.5676 173.478 47.2379 172.77C47.2926 172.722 47.3583 172.689 47.4291 172.672C47.4998 172.656 47.5736 172.657 47.6438 172.676ZM42.6312 178.585C42.6978 178.601 42.7594 178.634 42.8105 178.68C42.8962 178.778 42.9434 178.903 42.9434 179.034C42.9434 179.164 42.8962 179.29 42.8105 179.388C42.2252 180.152 41.6494 180.945 41.1019 181.729C41.0695 181.781 41.0267 181.826 40.9761 181.861C40.9255 181.896 40.8682 181.92 40.8079 181.931C40.7475 181.943 40.6854 181.942 40.6255 181.928C40.5657 181.914 40.5093 181.888 40.46 181.851C40.3621 181.766 40.3001 181.646 40.2861 181.517C40.2721 181.388 40.3072 181.258 40.3844 181.153C40.9414 180.35 41.5172 179.548 42.1214 178.765C42.1723 178.68 42.2511 178.616 42.3441 178.583C42.4371 178.551 42.5386 178.551 42.6312 178.585ZM38.2699 185.08L38.402 185.146C38.5047 185.225 38.5743 185.339 38.597 185.467C38.6197 185.594 38.5939 185.726 38.5248 185.835C38.0244 186.675 37.5808 187.534 37.0899 188.384C37.064 188.44 37.0268 188.489 36.9807 188.53C36.9346 188.571 36.8805 188.601 36.8219 188.62C36.7633 188.639 36.7015 188.645 36.6404 188.638C36.5793 188.632 36.5202 188.613 36.4668 188.582C36.3574 188.514 36.2792 188.405 36.2492 188.28C36.2192 188.155 36.2397 188.022 36.3063 187.912C36.7595 187.043 37.2504 186.175 37.7601 185.316C37.8086 185.227 37.8843 185.156 37.9761 185.114C38.0678 185.071 38.1708 185.059 38.2699 185.08ZM34.6732 192.084H34.7488C34.8619 192.147 34.9472 192.249 34.9875 192.372C35.0278 192.495 35.0201 192.628 34.9659 192.745C34.5694 193.633 34.2012 194.548 33.852 195.464C33.8328 195.524 33.8018 195.579 33.7608 195.627C33.7199 195.675 33.6698 195.714 33.6135 195.742C33.5572 195.77 33.4958 195.787 33.433 195.791C33.3702 195.795 33.3073 195.787 33.2478 195.766C33.1303 195.711 33.0395 195.611 32.9953 195.489C32.951 195.367 32.957 195.232 33.0118 195.115C33.3611 194.171 33.7481 193.227 34.1352 192.349C34.1786 192.247 34.2558 192.163 34.3538 192.111C34.4518 192.06 34.5647 192.044 34.6732 192.066V192.084ZM31.9734 199.514C32.0919 199.558 32.1886 199.647 32.2431 199.762C32.2977 199.876 32.3059 200.007 32.266 200.127C32.0489 200.864 31.8412 201.609 31.6524 202.355L31.5014 202.969C31.4762 203.094 31.4029 203.205 31.297 203.278C31.1912 203.35 31.0612 203.378 30.935 203.356C30.8141 203.319 30.7127 203.235 30.6526 203.124C30.5926 203.013 30.5787 202.882 30.614 202.761L30.7745 202.129C30.9633 201.373 31.171 200.618 31.3975 199.863C31.411 199.801 31.4365 199.742 31.4728 199.69C31.5091 199.638 31.5553 199.593 31.6088 199.559C31.6623 199.525 31.7221 199.501 31.7847 199.49C31.8473 199.479 31.9114 199.481 31.9734 199.495V199.514ZM30.2081 207.217C30.3234 207.25 30.4213 207.326 30.4811 207.43C30.541 207.534 30.5582 207.657 30.5291 207.774C30.3686 208.718 30.2364 209.709 30.1137 210.681C30.1018 210.81 30.0416 210.929 29.9452 211.015C29.8489 211.101 29.7235 211.147 29.5945 211.144C29.5325 211.135 29.4729 211.113 29.4194 211.08C29.366 211.048 29.3197 211.004 29.2835 210.953C29.2473 210.902 29.2219 210.844 29.2088 210.782C29.1958 210.721 29.1953 210.658 29.2075 210.596C29.3208 209.652 29.4718 208.614 29.6323 207.642C29.6466 207.515 29.7098 207.398 29.8085 207.317C29.9072 207.236 30.0336 207.197 30.1609 207.207L30.2081 207.217ZM29.368 215.071C29.4727 215.099 29.5637 215.165 29.6243 215.255C29.685 215.345 29.7112 215.454 29.6983 215.562C29.6983 216.506 29.6417 217.506 29.6417 218.479C29.6496 218.608 29.6068 218.736 29.5222 218.835C29.4376 218.933 29.318 218.995 29.1886 219.007C29.1263 219.01 29.0641 219 29.0061 218.977C28.9481 218.954 28.8955 218.919 28.8519 218.875C28.8083 218.83 28.7745 218.777 28.7528 218.718C28.7311 218.66 28.722 218.598 28.726 218.535C28.726 217.591 28.726 216.543 28.7827 215.552C28.7849 215.423 28.8357 215.3 28.925 215.207C29.0144 215.115 29.1355 215.059 29.2641 215.052L29.368 215.071ZM29.5662 222.906C29.6572 222.933 29.7378 222.987 29.7969 223.062C29.856 223.136 29.8908 223.227 29.8966 223.321C29.991 224.265 30.1137 225.209 30.2553 226.153C30.279 226.283 30.2534 226.417 30.1836 226.529C30.1137 226.64 30.0046 226.722 29.8777 226.758C29.8173 226.77 29.755 226.769 29.6948 226.756C29.6346 226.743 29.5778 226.717 29.5281 226.681C29.4783 226.644 29.4367 226.598 29.4059 226.544C29.3751 226.491 29.3557 226.432 29.3491 226.371C29.2075 225.427 29.0847 224.416 28.9903 223.444C28.9732 223.315 29.0055 223.184 29.0807 223.077C29.1559 222.97 29.2686 222.896 29.3963 222.868L29.5662 222.906ZM30.8878 230.562C30.9671 230.584 31.0389 230.627 31.0955 230.687C31.152 230.747 31.1912 230.821 31.2088 230.902C31.4353 231.846 31.6996 232.79 31.9734 233.649C32.0133 233.773 32.0066 233.908 31.9545 234.028C31.9024 234.148 31.8085 234.244 31.6902 234.3C31.6335 234.324 31.5724 234.335 31.5109 234.333C31.4495 234.332 31.3891 234.317 31.3338 234.29C31.2785 234.263 31.2295 234.225 31.19 234.178C31.1506 234.131 31.1215 234.076 31.1049 234.017C30.8217 233.073 30.5574 232.129 30.3214 231.185C30.2891 231.058 30.3039 230.925 30.3629 230.808C30.422 230.692 30.5213 230.601 30.6423 230.552C30.7234 230.532 30.8086 230.535 30.8878 230.562Z" fill="#455A64"/>
</svg>
