<svg width="536" height="357" viewBox="0 0 536 357" fill="none" xmlns="http://www.w3.org/2000/svg">
<path d="M400.698 86.0188C404.341 70.574 394.762 55.103 379.303 51.4634C363.844 47.8237 348.358 57.3938 344.715 72.8386C341.072 88.2834 350.651 103.754 366.111 107.394C381.57 111.034 397.055 101.464 400.698 86.0188Z" fill="#E0E0E0"/>
<path d="M385.791 80.325C385.456 80.3782 385.116 80.4021 384.777 80.3964L381.975 80.4464C379.61 80.4464 376.301 80.5035 372.57 80.5106H372.384V78.4615C372.384 74.2988 372.384 70.5289 372.441 67.8086C372.441 66.4877 372.484 65.4024 372.499 64.5742C372.492 64.1778 372.516 63.7816 372.57 63.3889C372.628 63.7812 372.652 64.1778 372.642 64.5742C372.642 65.4024 372.677 66.4877 372.706 67.8086C372.706 70.5289 372.756 74.2988 372.756 78.4615V80.325L372.57 80.1394C376.301 80.1394 379.61 80.1394 381.975 80.2036L384.777 80.2607C385.116 80.2555 385.455 80.277 385.791 80.325Z" fill="#FAFAFA"/>
<path d="M372.656 55.4277C372.847 56.2169 372.912 57.0315 372.849 57.8411C372.912 58.6506 372.847 59.4652 372.656 60.2544C372.473 59.4638 372.41 58.6503 372.47 57.8411C372.41 57.0319 372.473 56.2183 372.656 55.4277Z" fill="#FAFAFA"/>
<path d="M385.763 59.3049C385.341 59.9848 384.818 60.5964 384.212 61.1185C383.689 61.7243 383.077 62.2468 382.396 62.6679C382.818 61.988 383.341 61.3764 383.947 60.8543C384.47 60.2485 385.082 59.726 385.763 59.3049Z" fill="#FAFAFA"/>
<path d="M393.424 67.6658C392.82 68.184 392.155 68.6275 391.444 68.9867C390.797 69.4515 390.096 69.8375 389.357 70.1362C390.511 69.0187 391.9 68.1744 393.424 67.6658Z" fill="#FAFAFA"/>
<path d="M397.919 80.075C395.73 80.3226 393.52 80.3226 391.33 80.075C393.52 79.8275 395.73 79.8275 397.919 80.075Z" fill="#FAFAFA"/>
<path d="M352.23 79.6395C350.165 79.887 348.078 79.887 346.013 79.6395C348.078 79.392 350.165 79.392 352.23 79.6395Z" fill="#FAFAFA"/>
<path d="M355.468 88.8787C354.769 89.6807 353.981 90.3994 353.117 91.0207C352.33 91.7341 351.462 92.3524 350.53 92.8628C351.226 92.0586 352.015 91.3396 352.881 90.7208C353.666 90.0047 354.535 89.3862 355.468 88.8787Z" fill="#FAFAFA"/>
<path d="M363.437 96.0188C362.976 96.9824 362.44 97.9086 361.836 98.7891C361.344 99.7387 360.775 100.646 360.135 101.502C360.446 100.472 360.911 99.4951 361.514 98.6035C362.018 97.6484 362.667 96.7766 363.437 96.0188Z" fill="#FAFAFA"/>
<path d="M372.656 105.236C372.472 104.149 372.41 103.046 372.47 101.945C372.41 100.844 372.472 99.7403 372.656 98.6533C372.848 99.7392 372.913 100.844 372.849 101.945C372.913 103.046 372.848 104.15 372.656 105.236Z" fill="#FAFAFA"/>
<path d="M386.856 100.852C385.852 100.389 384.934 99.7585 384.14 98.9889C383.269 98.3135 382.522 97.4921 381.932 96.5613C382.79 97.2302 383.611 97.9452 384.391 98.7033C385.253 99.3722 386.076 100.09 386.856 100.852Z" fill="#FAFAFA"/>
<path d="M393.524 93.6838C392.731 93.1364 392.011 92.4911 391.38 91.7632C390.649 91.1219 390.003 90.3901 389.458 89.5854C390.263 90.1297 390.998 90.7726 391.644 91.499C392.361 92.1451 392.992 92.8792 393.524 93.6838Z" fill="#FAFAFA"/>
<path d="M355.189 70.7859C354.472 70.329 353.825 69.7711 353.267 69.1295C352.622 68.5701 352.061 67.9208 351.602 67.2017C352.321 67.6607 352.971 68.221 353.531 68.8653C354.173 69.4225 354.732 70.0694 355.189 70.7859Z" fill="#FAFAFA"/>
<path d="M363.387 62.118C362.678 61.6749 362.04 61.1286 361.493 60.4973C360.857 59.9548 360.308 59.3193 359.863 58.6123C360.57 59.0582 361.208 59.6042 361.757 60.2331C362.389 60.7792 362.938 61.4142 363.387 62.118Z" fill="#FAFAFA"/>
<path d="M41.7436 146.834H42.2009H43.5088L48.4543 146.777L66.0637 146.62L65.9136 146.777C65.8707 138.009 65.8135 127.456 65.7564 116.075L65.9422 116.261H62.6761H59.4601H53.2068H41.6221L41.7864 116.089C41.7864 125.171 41.7864 132.818 41.7864 138.223C41.7864 140.915 41.7864 143.043 41.7864 144.521C41.7864 145.235 41.7864 145.792 41.7864 146.191C41.7864 146.377 41.7864 146.513 41.7864 146.627C41.7935 146.679 41.7935 146.732 41.7864 146.784C41.7832 146.739 41.7832 146.694 41.7864 146.648C41.7864 146.541 41.7864 146.406 41.7864 146.234C41.7864 145.842 41.7864 145.292 41.7864 144.592C41.7864 143.121 41.7507 141.022 41.7221 138.337C41.6792 132.911 41.6149 125.228 41.5435 116.111V115.939H41.7078L53.2997 115.875H59.5531H62.7691H66.0279C65.8636 115.711 66.2638 116.104 66.2209 116.068C66.2209 127.42 66.2852 137.973 66.3138 146.77V146.927H48.4471H43.5445H42.2653L41.7436 146.834Z" fill="#E0E0E0"/>
<path d="M55.1435 146.32H51.7703V147.141H55.1435V146.32Z" fill="#EBEBEB"/>
<path d="M57.1446 127.063H49.7693V137.709H57.1446V127.063Z" fill="#E0E0E0"/>
<path d="M56.0868 115.685L52.7136 115.698L52.7164 116.398L56.0896 116.385L56.0868 115.685Z" fill="#EBEBEB"/>
<path d="M459.844 62.3488L434.907 64.7126L436.502 81.5019L461.439 79.1381L459.844 62.3488Z" fill="white"/>
<path d="M461.431 79.154C461.41 79.0505 461.395 78.9455 461.389 78.8399C461.389 78.6114 461.324 78.3187 461.281 77.9402C461.203 77.1406 461.081 75.9982 460.924 74.5559C460.631 71.6213 460.209 67.4159 459.688 62.375L459.852 62.5107L434.924 64.9097L435.089 64.7098V64.8312V64.974V65.2525L435.139 65.8094L435.246 66.9232C435.31 67.6372 435.382 68.3941 435.453 69.1223C435.591 70.5789 435.725 72.0069 435.853 73.4063C436.118 76.2195 436.375 78.9184 436.611 81.4817L436.425 81.3246L454.356 79.711L459.509 79.2683L460.888 79.1612H461.246C461.331 79.1612 461.374 79.1612 461.374 79.1612C461.228 79.1933 461.08 79.2147 460.931 79.2254L459.588 79.3682L454.485 79.8966L436.461 81.6959H436.289V81.5245C436.039 78.9684 435.782 76.2623 435.51 73.4563C435.372 72.0283 435.234 70.6003 435.096 69.1723C435.032 68.4583 434.96 67.7443 434.889 66.9732L434.781 65.8594L434.731 65.3024V65.024V64.8812V64.7598L434.903 64.5527L459.838 62.2251H459.988V62.3679C460.438 67.4873 460.81 71.6999 461.074 74.6558C461.196 76.0838 461.288 77.2191 461.353 78.0188C461.353 78.3829 461.403 78.6685 461.424 78.8899C461.432 78.9777 461.434 79.0659 461.431 79.154Z" fill="#E0E0E0"/>
<path d="M459.838 62.3608C459.615 62.6998 459.361 63.0177 459.08 63.3105L456.893 65.8237C455.035 67.9657 452.441 70.8217 449.532 74.0776L449.432 74.1918L449.296 74.1061L448.632 73.6849C444.815 71.2573 441.371 69.0367 438.884 67.416L435.946 65.481L435.16 64.9384C434.982 64.8099 434.889 64.7385 434.896 64.7242C435.002 64.7612 435.103 64.8115 435.196 64.8741L436.025 65.3596L439.019 67.1946C441.535 68.7583 445.008 70.9431 448.825 73.3707L449.489 73.7991H449.254C452.169 70.6004 454.799 67.7158 456.672 65.6881L458.944 63.2533C459.22 62.9347 459.519 62.6364 459.838 62.3608Z" fill="#E0E0E0"/>
<path d="M320.364 59.2977C320.585 59.2646 320.797 59.1842 320.985 59.0621C321.199 58.8969 321.352 58.6661 321.421 58.4052C321.464 58.0355 321.476 57.663 321.457 57.2914C321.457 55.5492 321.457 53.0859 321.5 50.0514C321.5 49.2874 321.5 48.4877 321.5 47.6524C321.5 47.2382 321.5 46.8098 321.5 46.3743C321.518 46.1676 321.518 45.9598 321.5 45.7531C321.456 45.5631 321.362 45.3881 321.228 45.2462C321.09 45.107 320.913 45.0125 320.721 44.9749C320.502 44.9636 320.282 44.9636 320.063 44.9749H315.69H302.533C302.289 44.9867 302.058 45.0878 301.884 45.259C301.71 45.4303 301.605 45.6595 301.589 45.9031C301.589 46.4743 301.589 47.0455 301.589 47.6095C301.589 48.7448 301.589 49.8586 301.539 50.9582C301.504 53.1573 301.468 55.2422 301.432 57.2985C301.432 57.5555 301.432 57.8054 301.432 58.0553C301.414 58.2708 301.467 58.4863 301.582 58.6694C301.688 58.851 301.851 58.9918 302.047 59.0692C302.26 59.1291 302.483 59.1509 302.704 59.1335H305.491H310.494L317.741 59.1906H319.713L317.741 59.2263L310.494 59.2834H305.491H302.704C302.444 59.302 302.182 59.273 301.932 59.1977C301.668 59.0969 301.444 58.911 301.296 58.6694C301.15 58.429 301.078 58.1508 301.089 57.8697C301.089 57.6198 301.089 57.3699 301.089 57.1557C301.089 55.1279 301.146 53.0074 301.175 50.8154C301.175 49.7158 301.175 48.5948 301.218 47.4596C301.218 46.8884 301.218 46.31 301.218 45.7317C301.244 45.3938 301.396 45.0778 301.643 44.8455C301.89 44.6132 302.215 44.4811 302.554 44.4751H315.711H320.085C320.323 44.4582 320.562 44.4582 320.8 44.4751C321.053 44.5261 321.285 44.6532 321.464 44.8392C321.641 45.022 321.761 45.253 321.807 45.5032C321.834 45.7405 321.834 45.98 321.807 46.2172C321.807 46.6528 321.807 47.074 321.807 47.4953C321.807 48.3235 321.772 49.1232 321.757 49.8943C321.693 52.9217 321.636 55.385 321.6 57.1271C321.605 57.5095 321.579 57.8915 321.521 58.2695C321.446 58.5601 321.269 58.8137 321.021 58.9835C320.873 59.0811 320.704 59.1423 320.528 59.162C320.483 59.2181 320.427 59.2643 320.364 59.2977Z" fill="#E0E0E0"/>
<path d="M312.223 50.8154L314.66 52.2934L312.166 53.7571L309.679 55.2136L309.729 52.2791L309.779 49.3374L312.223 50.8154Z" fill="#E0E0E0"/>
<path d="M109.137 43.7825H73.7319V89.8997L109.137 90.7851V43.7825Z" fill="#EBEBEB"/>
<path d="M106.592 45.4246H75.6187V87.2507L106.592 88.2931V45.4246Z" fill="#FAFAFA"/>
<path d="M101.382 53.0217L80.8215 52.2434V81.4746H101.382V53.0217Z" fill="#E0E0E0"/>
<path d="M80.8215 81.4746L101.382 66.4592L80.8215 52.2434V81.4746Z" fill="#F5F5F5"/>
<path d="M372.927 290.02C359.97 280.98 357.033 264.194 357.548 249.107C357.633 246.587 357.355 243.931 358.555 241.725C359.756 239.518 362.55 238.005 364.809 239.062C366.681 239.947 367.496 242.117 368.546 243.917C369.942 246.318 371.992 248.274 374.457 249.557C376.065 250.393 378.03 250.9 379.631 250.029C381.775 248.829 382.061 245.83 382.047 243.324L381.961 229.315C381.961 226.816 381.961 224.253 382.718 221.876C383.476 219.498 385.22 217.292 387.607 216.628C389.994 215.964 392.938 217.342 393.445 219.784C393.537 220.821 393.561 221.863 393.517 222.904C393.581 223.939 394.067 225.096 395.053 225.381C396.04 225.667 397.062 224.967 397.812 224.232C400.399 221.704 402.157 218.448 403.794 215.207C405.43 211.965 407.031 208.645 409.375 205.889C411.719 203.133 414.971 200.948 418.566 200.741C422.161 200.534 425.977 202.755 426.885 206.275C427.792 209.795 425.734 213.415 423.49 216.271C420.161 220.509 416.238 224.246 411.841 227.366C410.983 227.836 410.299 228.57 409.89 229.458C409.347 231.129 410.926 232.785 412.577 233.335C414.45 233.956 416.479 233.764 418.43 233.992C420.381 234.221 422.504 235.085 423.24 236.934C424.269 239.49 422.125 242.175 420.017 243.931C415.794 247.453 410.995 250.221 405.831 252.113C403.987 252.792 402.043 253.384 400.556 254.677C399.07 255.969 401.378 260.553 402.279 262.316C403.179 264.08 402.279 262.316 404.208 261.959C406.138 261.602 407.867 260.531 409.711 259.86C413.156 258.561 417.573 258.796 419.809 261.774C421.239 263.73 421.389 266.451 420.653 268.785C419.815 271.082 418.524 273.186 416.858 274.976C411.395 281.527 404.29 286.514 396.268 289.427C388.278 292.197 380.874 292.947 372.927 290.041" fill="#EBEBEB"/>
<path d="M372.734 301.208C373.434 294.21 374.806 287.295 376.829 280.559C379.337 272.341 382.315 264.274 385.748 256.397C386.642 254.298 387.535 252.228 388.407 250.186C389.279 248.144 390.158 246.123 391.13 244.202C393.007 240.517 395.085 236.936 397.355 233.478C399.499 230.165 401.643 227.095 403.701 224.239C405.759 221.383 407.703 218.755 409.59 216.442C412.551 212.774 415.799 209.345 419.302 206.189C420.538 205.075 421.525 204.24 422.204 203.683L422.975 203.054C423.062 202.979 423.155 202.912 423.254 202.854C423.177 202.939 423.093 203.018 423.004 203.09L422.289 203.754C421.632 204.332 420.667 205.182 419.431 206.325C415.985 209.523 412.784 212.974 409.854 216.649C407.989 218.977 406.045 221.604 404.015 224.46C401.986 227.316 399.849 230.401 397.712 233.742C395.459 237.198 393.396 240.773 391.53 244.452C390.565 246.366 389.701 248.365 388.822 250.414C387.942 252.463 387.056 254.527 386.163 256.626C382.734 264.487 379.751 272.534 377.23 280.73C375.197 287.42 373.8 294.285 373.056 301.237" fill="#E0E0E0"/>
<path d="M391.266 244.188C391.148 243.843 391.066 243.486 391.023 243.124C390.887 242.41 390.73 241.425 390.558 240.175C390.201 237.683 389.843 234.221 389.436 230.401C389.029 226.581 388.614 223.139 388.228 220.655C388.035 219.412 387.871 218.413 387.742 217.72C387.656 217.365 387.61 217 387.606 216.635C387.745 216.974 387.851 217.325 387.921 217.684C388.1 218.363 388.314 219.362 388.543 220.597C389.021 223.075 389.493 226.531 389.893 230.351C390.294 234.171 390.608 237.526 390.88 240.133C391.001 241.311 391.108 242.275 391.194 243.096C391.258 243.456 391.282 243.822 391.266 244.188Z" fill="#E0E0E0"/>
<path d="M423.497 238.162C423.074 238.256 422.643 238.308 422.21 238.319C421.389 238.39 420.188 238.49 418.716 238.662C415.764 238.983 411.698 239.561 407.281 240.404C402.864 241.246 398.784 242.189 395.925 242.946C394.496 243.317 393.331 243.66 392.53 243.874C392.123 244.019 391.701 244.122 391.272 244.181C391.658 243.986 392.06 243.826 392.473 243.702C393.259 243.424 394.41 243.046 395.839 242.631C398.698 241.782 402.7 240.796 407.167 239.94C410.977 239.211 414.822 238.675 418.687 238.333C420.174 238.205 421.381 238.155 422.21 238.14C422.639 238.111 423.069 238.118 423.497 238.162Z" fill="#E0E0E0"/>
<path d="M377.222 279.966C377.133 279.845 377.059 279.713 377.001 279.574L376.45 278.41C375.979 277.396 375.328 275.911 374.557 274.069C372.999 270.377 370.983 265.215 368.896 259.489C366.81 253.763 364.837 248.579 363.365 244.866C362.65 243.06 362.043 241.575 361.6 240.468L361.128 239.268C361.065 239.132 361.019 238.988 360.992 238.84C361.085 238.959 361.16 239.092 361.214 239.233C361.364 239.547 361.55 239.947 361.764 240.397C362.243 241.41 362.886 242.896 363.665 244.738C365.223 248.429 367.238 253.591 369.325 259.325C371.412 265.058 373.377 270.228 374.857 273.94L376.615 278.339C376.808 278.817 376.958 279.217 377.086 279.538C377.153 279.673 377.199 279.818 377.222 279.966Z" fill="#E0E0E0"/>
<path d="M420.06 266.179C419.924 266.252 419.78 266.31 419.631 266.351L418.387 266.772L413.792 268.257C409.918 269.506 404.594 271.306 398.705 273.291C392.817 275.276 387.471 277.032 383.569 278.21C381.618 278.796 380.038 279.253 378.938 279.552L377.666 279.881C377.521 279.933 377.369 279.962 377.215 279.967C377.351 279.894 377.495 279.836 377.644 279.795L378.888 279.381L383.469 277.896C387.342 276.639 392.674 274.84 398.562 272.855C404.451 270.87 409.797 269.114 413.699 267.936C415.65 267.35 417.229 266.893 418.33 266.593L419.602 266.265C419.749 266.212 419.903 266.183 420.06 266.179Z" fill="#E0E0E0"/>
<path d="M41.6221 317.966C41.6221 317.859 146.414 317.78 275.654 317.78C404.894 317.78 509.707 317.859 509.707 317.966C509.707 318.073 404.937 318.151 275.654 318.151C146.371 318.151 41.6221 318.066 41.6221 317.966Z" fill="#263238"/>
<path d="M124.466 125.335C124.466 125.335 111.081 269.713 138.974 316.13L387.063 319.058C387.063 319.058 345.97 193.908 349.529 121.558L124.466 125.335Z" fill="#E0E0E0"/>
<path d="M124.466 125.335C124.466 125.335 108.744 274.212 157.734 306.027H396.833C396.833 306.027 354.396 233.349 351.051 125.335H124.466Z" fill="#EBEBEB"/>
<path d="M355.861 90.5208H123.251V127.784H355.861V90.5208Z" fill="#EE5253"/>
<path d="M144.041 90.8136C144.041 90.8136 146.385 82.3955 154.933 82.3955C162.215 82.3955 165.824 88.236 165.824 93.591C165.824 98.946 162.515 104.608 154.933 105.015" stroke="#E0E0E0" stroke-width="3" stroke-linecap="round" stroke-linejoin="round"/>
<path d="M152.06 90.3923H140.582V95.5117H152.06V90.3923Z" fill="#F59798"/>
<path d="M188.229 90.8136C188.229 90.8136 190.573 82.3955 199.12 82.3955C206.403 82.3955 210.012 88.236 210.012 93.591C210.012 98.946 206.703 104.608 199.12 105.015" stroke="#E0E0E0" stroke-width="3" stroke-linecap="round" stroke-linejoin="round"/>
<path d="M196.255 90.3923H184.777V95.5117H196.255V90.3923Z" fill="#F59798"/>
<path d="M232.424 90.8136C232.424 90.8136 234.768 82.3955 243.315 82.3955C250.598 82.3955 254.207 88.236 254.207 93.591C254.207 98.946 250.898 104.608 243.315 105.015" stroke="#E0E0E0" stroke-width="3" stroke-linecap="round" stroke-linejoin="round"/>
<path d="M240.442 90.3923H228.965V95.5117H240.442V90.3923Z" fill="#F59798"/>
<path d="M276.612 90.8136C276.612 90.8136 278.956 82.3955 287.503 82.3955C294.786 82.3955 298.395 88.236 298.395 93.591C298.395 98.946 295.086 104.608 287.503 105.015" stroke="#E0E0E0" stroke-width="3" stroke-linecap="round" stroke-linejoin="round"/>
<path d="M284.637 90.3923H273.16V95.5117H284.637V90.3923Z" fill="#F59798"/>
<path d="M320.807 90.8136C320.807 90.8136 323.151 82.3955 331.698 82.3955C338.981 82.3955 342.59 88.236 342.59 93.591C342.59 98.946 339.281 104.608 331.698 105.015" stroke="#E0E0E0" stroke-width="3" stroke-linecap="round" stroke-linejoin="round"/>
<path d="M328.825 90.3923H317.348V95.5117H328.825V90.3923Z" fill="#F59798"/>
<path d="M123.273 129.17C123.273 129.17 120.7 295.082 174.529 295.082L395.639 295.16C395.639 295.16 364.037 262.945 354.675 129.17H123.273Z" fill="#F5F5F5"/>
<path d="M364.094 274.604C364.044 274.462 363.808 273.79 363.286 272.334C362.765 270.877 361.957 268.65 360.992 265.722C359.013 259.903 356.247 251.299 353.081 240.182C346.713 217.963 339.038 185.583 333.07 145.677L333.22 145.806H145.742H143.955L144.141 145.592C147.514 169.611 150.98 193.023 156.591 214.95C159.278 225.668 162.675 236.197 166.76 246.466C170.637 256.196 175.338 265.579 180.811 274.511L180.668 274.433L364.087 274.604L180.668 274.769H180.575L180.525 274.69C175.033 265.754 170.314 256.366 166.417 246.63C162.326 236.349 158.922 225.809 156.226 215.078C150.602 193.123 147.136 169.703 143.755 145.677V145.463H145.756L333.235 145.499H333.363V145.627C339.302 185.533 346.942 217.913 353.245 240.132C356.39 251.257 359.12 259.867 361.107 265.694C363.093 271.52 364.001 274.312 364.094 274.604Z" fill="#263238"/>
<path d="M344.233 210.03C344.233 210.137 302.011 210.216 249.94 210.216C197.87 210.216 155.604 210.137 155.604 210.03C155.604 209.923 197.82 209.844 249.94 209.844C302.061 209.844 344.233 209.916 344.233 210.03Z" fill="#263238"/>
<path d="M354.396 244.495C354.396 244.595 312.159 244.681 260.06 244.681C207.961 244.681 165.724 244.595 165.724 244.495C165.724 244.395 207.947 244.309 260.06 244.309C312.174 244.309 354.396 244.388 354.396 244.495Z" fill="#263238"/>
<path d="M337.852 176.822C337.852 176.922 295.629 177.008 243.558 177.008C191.488 177.008 149.222 176.922 149.222 176.822C149.222 176.722 191.438 176.636 243.558 176.636C295.679 176.636 337.852 176.715 337.852 176.822Z" fill="#263238"/>
<path d="M211.398 274.604C211.398 274.604 211.355 274.497 211.284 274.283C211.212 274.069 211.105 273.733 210.977 273.326C210.705 272.462 210.319 271.22 209.819 269.635C208.818 266.429 207.418 261.781 205.724 256.019C202.358 244.495 197.898 228.516 193.575 210.708C191.431 201.805 189.508 193.287 187.857 185.518C186.206 177.75 184.856 170.732 183.805 164.813C183.255 161.857 182.804 159.179 182.376 156.83C181.947 154.481 181.661 152.453 181.389 150.797C181.118 149.14 180.939 147.862 180.803 146.977C180.746 146.548 180.696 146.22 180.66 145.977C180.625 145.734 180.625 145.642 180.625 145.642C180.657 145.749 180.684 145.859 180.703 145.97C180.746 146.213 180.803 146.541 180.882 146.963L181.532 150.768C181.804 152.425 182.161 154.452 182.583 156.794C183.005 159.136 183.469 161.792 184.012 164.763C185.099 170.667 186.514 177.672 188.143 185.469C189.772 193.265 191.716 201.741 193.86 210.644C198.148 228.444 202.586 244.431 205.888 255.969C207.546 261.731 208.904 266.393 209.869 269.613C210.333 271.213 210.698 272.469 210.955 273.319L211.227 274.29C211.377 274.49 211.398 274.604 211.398 274.604Z" fill="#263238"/>
<path d="M247.989 274.604C247.989 274.604 247.947 274.497 247.875 274.276L247.575 273.319L246.446 269.621C245.467 266.415 244.095 261.767 242.422 255.99C239.106 244.452 234.618 228.48 230.273 210.687C225.928 192.894 222.476 176.651 220.36 164.834C219.817 161.885 219.346 159.208 218.974 156.852C218.602 154.495 218.259 152.475 218.009 150.811C217.759 149.147 217.58 147.884 217.452 146.991C217.395 146.563 217.352 146.234 217.316 145.992C217.28 145.749 217.259 145.656 217.259 145.656C217.259 145.656 217.259 145.763 217.33 145.992L217.502 146.977C217.652 147.869 217.859 149.119 218.131 150.79C218.402 152.46 218.745 154.474 219.153 156.823C219.56 159.172 220.039 161.821 220.582 164.791C222.762 176.586 226.199 192.816 230.587 210.601C234.975 228.387 239.392 244.359 242.644 255.912L246.56 269.585C247.018 271.184 247.368 272.441 247.618 273.298L247.882 274.269C247.926 274.378 247.962 274.49 247.989 274.604Z" fill="#263238"/>
<path d="M286.224 274.604C286.178 274.499 286.138 274.392 286.103 274.283C286.031 274.047 285.924 273.733 285.788 273.326L284.623 269.635C283.601 266.436 282.179 261.781 280.442 256.069C277.012 244.559 272.374 228.623 267.943 210.837C263.512 193.051 260.139 176.758 258.195 164.934C257.702 161.978 257.266 159.293 256.937 156.93C256.608 154.567 256.294 152.539 256.101 150.868C255.908 149.197 255.744 147.926 255.636 147.027C255.586 146.606 255.551 146.27 255.522 146.027C255.493 145.784 255.522 145.692 255.522 145.692C255.522 145.692 255.522 145.799 255.579 146.027L255.729 147.02C255.858 147.912 256.037 149.162 256.265 150.847C256.494 152.532 256.801 154.545 257.166 156.901C257.53 159.258 257.966 161.935 258.474 164.891C260.489 176.729 263.862 192.98 268.322 210.751C272.781 228.523 277.348 244.474 280.721 255.998C282.429 261.745 283.816 266.393 284.78 269.628C285.252 271.227 285.624 272.484 285.881 273.341C286 273.75 286.093 274.071 286.16 274.304C286.203 274.49 286.224 274.604 286.224 274.604Z" fill="#263238"/>
<path d="M324.459 274.604C324.413 274.499 324.372 274.392 324.337 274.283L324.016 273.326C323.73 272.47 323.301 271.234 322.808 269.649C321.764 266.458 320.292 261.795 318.52 256.083C314.946 244.602 310.187 228.694 305.656 210.923C303.369 202.041 301.368 193.53 299.796 185.74C298.952 181.856 298.288 178.136 297.652 174.666C297.351 172.924 297.063 171.243 296.787 169.625C296.508 168.011 296.251 166.455 296.072 164.97C294.171 153.082 293.728 145.656 293.728 145.656C293.728 145.656 293.728 145.77 293.778 145.992C293.828 146.213 293.85 146.563 293.9 146.991C294 147.891 294.135 149.183 294.321 150.84C294.507 152.496 294.771 154.545 295.079 156.909C295.386 159.272 295.793 161.964 296.244 164.927C296.458 166.412 296.73 167.969 297.015 169.582C297.301 171.196 297.594 172.874 297.895 174.616C298.573 178.079 299.252 181.792 300.096 185.669C301.718 193.444 303.705 201.955 305.985 210.837C310.523 228.594 315.275 244.509 318.749 256.005L322.936 269.606C323.43 271.199 323.815 272.462 324.08 273.305C324.201 273.719 324.294 274.019 324.366 274.269C324.437 274.519 324.459 274.604 324.459 274.604Z" fill="#263238"/>
<path d="M186.399 158.422C186.399 158.422 188.007 174.066 194.225 183.833H230.837C230.837 183.833 221.94 168.011 220.832 157.016L220.031 150.854H185.813L186.399 158.422Z" fill="#455A64"/>
<path d="M216.787 161.164C216.787 161.271 211.577 161.35 205.145 161.35C198.713 161.35 193.503 161.271 193.503 161.164C193.503 161.057 198.713 160.978 205.145 160.978C211.577 160.978 216.787 161.064 216.787 161.164Z" fill="#FAFAFA"/>
<path d="M217.973 165.119C217.973 165.227 212.763 165.305 206.331 165.305C199.899 165.305 194.689 165.227 194.689 165.119C194.689 165.012 199.899 164.934 206.331 164.934C212.763 164.934 217.973 165.02 217.973 165.119Z" fill="#FAFAFA"/>
<path d="M219.117 169.075C219.117 169.175 213.907 169.261 207.475 169.261C201.043 169.261 195.819 169.175 195.819 169.075C195.819 168.975 201.029 168.889 207.461 168.889C213.893 168.889 219.117 168.975 219.117 169.075Z" fill="#FAFAFA"/>
<path d="M220.282 173.031C220.282 173.131 215.072 173.216 208.64 173.216C202.208 173.216 196.998 173.131 196.998 173.031C196.998 172.931 202.208 172.845 208.64 172.845C215.072 172.845 220.282 172.924 220.282 173.031Z" fill="#FAFAFA"/>
<path d="M312.045 196.985C312.045 196.985 313.653 212.629 319.87 222.39H356.468C356.468 222.39 347.571 206.574 346.463 195.579L345.663 189.41H311.43L312.045 196.985Z" fill="#263238"/>
<path d="M342.432 198.942C342.432 199.049 337.222 199.127 330.79 199.127C324.358 199.127 319.148 199.049 319.148 198.942C319.148 198.835 324.365 198.756 330.79 198.756C337.215 198.756 342.432 198.842 342.432 198.942Z" fill="#E0E0E0"/>
<path d="M343.597 202.897C343.597 202.997 338.387 203.083 331.955 203.083C325.523 203.083 320.313 202.997 320.313 202.897C320.313 202.797 325.523 202.712 331.955 202.712C338.387 202.712 343.597 202.776 343.597 202.897Z" fill="#E0E0E0"/>
<path d="M344.762 206.853C344.762 206.953 339.552 207.039 333.12 207.039C326.688 207.039 321.479 206.953 321.479 206.853C321.479 206.753 326.688 206.667 333.12 206.667C339.552 206.667 344.762 206.753 344.762 206.853Z" fill="#E0E0E0"/>
<path d="M345.899 210.808C345.899 210.908 340.689 210.994 334.257 210.994C327.825 210.994 322.615 210.908 322.615 210.808C322.615 210.708 327.825 210.623 334.257 210.623C340.689 210.623 345.899 210.701 345.899 210.808Z" fill="#E0E0E0"/>
<path d="M288.425 148.576C288.804 148.883 284.066 155.188 276.905 161.714C269.744 168.24 263.069 172.424 262.797 172.031C262.526 171.638 268.608 166.805 275.661 160.343C282.715 153.881 288.011 148.226 288.425 148.576Z" fill="#FF725E"/>
<path d="M295.365 172.624C295.064 173.045 287.067 167.847 277.219 161.428C267.371 155.009 259.403 149.776 259.667 149.29C259.931 148.805 268.357 153.381 278.248 159.836C288.139 166.291 295.658 172.21 295.365 172.624Z" fill="#FF725E"/>
<path d="M226.306 169.718C225.992 169.311 231.259 164.784 238.063 159.607C244.866 154.431 250.634 150.568 250.927 150.975C251.22 151.382 245.974 155.909 239.17 161.085C232.367 166.262 226.614 170.125 226.306 169.718Z" fill="#FF725E"/>
<path d="M255.215 171.924C254.886 172.352 247.882 167.419 238.984 161.75C230.087 156.08 222.69 151.754 222.933 151.304C223.176 150.854 231.03 154.445 239.992 160.186C248.954 165.926 255.522 171.539 255.215 171.924Z" fill="#FF725E"/>
<path d="M257.23 213.593C257.23 213.536 257.594 213.45 258.309 213.4C259.362 213.366 260.414 213.472 261.439 213.714C263.078 214.094 264.636 214.761 266.042 215.685C267.935 216.91 269.518 218.557 270.665 220.497C272.048 222.884 272.775 225.594 272.774 228.351C272.785 229.879 272.593 231.401 272.202 232.878C271.77 234.448 271.11 235.947 270.244 237.326C268.278 240.383 265.449 242.789 262.116 244.242C258.782 245.694 255.092 246.128 251.512 245.487C247.796 244.853 244.358 243.111 241.65 240.489C239.148 238.007 237.481 234.808 236.883 231.336C236.319 228.221 236.616 225.012 237.741 222.054C238.725 219.481 240.402 217.23 242.586 215.549C244.359 214.176 246.399 213.186 248.575 212.643C250.206 212.219 251.899 212.079 253.578 212.229C253.902 212.246 254.224 212.286 254.543 212.351C254.843 212.401 255.121 212.436 255.379 212.5C255.886 212.643 256.315 212.743 256.651 212.879C257.315 213.15 257.651 213.322 257.63 213.379C257.573 213.557 256.201 212.965 253.542 212.95C251.959 212.946 250.385 213.187 248.875 213.664C246.882 214.269 245.03 215.267 243.43 216.599C241.503 218.187 240.043 220.267 239.206 222.618C238.248 225.32 238.036 228.23 238.591 231.043C239.162 234.139 240.674 236.984 242.922 239.19C245.38 241.533 248.484 243.088 251.834 243.652C255.174 244.264 258.621 243.838 261.711 242.431C264.595 241.127 267.053 239.036 268.8 236.398C269.596 235.174 270.21 233.842 270.623 232.442C271.003 231.111 271.208 229.736 271.23 228.351C271.276 225.865 270.689 223.408 269.522 221.211C268.525 219.392 267.133 217.819 265.448 216.606C264.172 215.67 262.753 214.947 261.246 214.464C258.745 213.636 257.223 213.764 257.23 213.593Z" fill="#FF725E"/>
<path d="M155.561 205.889C155.175 205.568 159.678 199.463 166.003 192.537C172.22 185.733 177.923 180.492 178.381 180.956C178.838 181.42 173.657 186.918 167.375 193.808C161.093 200.698 155.969 206.217 155.561 205.889Z" fill="#FF725E"/>
<path d="M184.548 202.976C184.277 203.411 176.966 199.406 168.218 193.987C159.471 188.567 152.596 183.848 152.867 183.412C153.139 182.977 160.364 186.982 169.119 192.402C177.873 197.821 184.82 202.54 184.548 202.976Z" fill="#FF725E"/>
<path d="M254.071 219.255L256.865 223.261C256.977 223.426 257.129 223.561 257.306 223.653C257.483 223.746 257.68 223.792 257.88 223.789H262.769C262.999 223.788 263.225 223.851 263.421 223.971C263.617 224.092 263.776 224.265 263.879 224.47C263.982 224.676 264.026 224.906 264.005 225.135C263.985 225.364 263.9 225.583 263.762 225.767L260.81 229.658C260.69 229.817 260.61 230.003 260.578 230.199C260.546 230.396 260.562 230.597 260.625 230.786L262.161 235.42C262.234 235.638 262.245 235.872 262.191 236.096C262.138 236.319 262.023 236.523 261.859 236.685C261.695 236.846 261.489 236.958 261.265 237.009C261.04 237.059 260.806 237.045 260.589 236.969L255.972 235.37C255.783 235.307 255.581 235.29 255.383 235.319C255.186 235.349 254.998 235.425 254.836 235.541L250.898 238.44C250.713 238.577 250.493 238.658 250.263 238.676C250.034 238.694 249.804 238.647 249.6 238.54C249.396 238.434 249.226 238.272 249.109 238.074C248.992 237.876 248.934 237.649 248.94 237.419L249.033 232.543C249.036 232.342 248.991 232.144 248.902 231.965C248.812 231.786 248.68 231.632 248.518 231.514L244.552 228.658C244.372 228.524 244.232 228.343 244.148 228.135C244.064 227.927 244.039 227.7 244.076 227.478C244.113 227.257 244.21 227.05 244.357 226.881C244.504 226.711 244.695 226.585 244.909 226.516L249.59 225.088C249.781 225.029 249.954 224.925 250.096 224.784C250.238 224.644 250.344 224.472 250.405 224.282L251.884 219.633C251.949 219.412 252.075 219.213 252.247 219.059C252.42 218.905 252.632 218.803 252.86 218.764C253.087 218.724 253.322 218.749 253.536 218.836C253.75 218.923 253.935 219.068 254.071 219.255Z" fill="#FF725E"/>
<path d="M330.176 148.748C330.519 149.126 324.294 155.259 316.268 162.435C308.243 169.611 301.461 175.116 301.118 174.73C300.774 174.344 306.999 168.225 315.025 161.05C323.051 153.874 329.826 148.362 330.176 148.748Z" fill="#FF725E"/>
<path d="M334.836 170.803C334.607 171.26 325.881 167.354 315.354 162.085C304.827 156.816 296.465 152.16 296.701 151.696C296.937 151.232 305.649 155.145 316.183 160.421C326.717 165.698 335.064 170.346 334.836 170.803Z" fill="#FF725E"/>
<path d="M321.479 156.966H364.094L374.321 164.87L365.302 172.259L324.444 172.217L321.479 156.966Z" fill="#455A64"/>
<path opacity="0.2" d="M254.071 219.255L256.865 223.261C256.977 223.426 257.129 223.561 257.306 223.653C257.483 223.746 257.68 223.792 257.88 223.789H262.769C262.999 223.788 263.225 223.851 263.421 223.971C263.617 224.092 263.776 224.265 263.879 224.47C263.982 224.676 264.026 224.906 264.005 225.135C263.985 225.364 263.9 225.583 263.762 225.767L260.81 229.658C260.69 229.817 260.61 230.003 260.578 230.199C260.546 230.396 260.562 230.597 260.625 230.786L262.161 235.42C262.234 235.638 262.245 235.872 262.191 236.096C262.138 236.319 262.023 236.523 261.859 236.685C261.695 236.846 261.489 236.958 261.265 237.009C261.04 237.059 260.806 237.045 260.589 236.969L255.972 235.37C255.783 235.307 255.581 235.29 255.383 235.319C255.186 235.349 254.998 235.425 254.836 235.541L250.898 238.44C250.713 238.577 250.493 238.658 250.263 238.676C250.034 238.694 249.804 238.647 249.6 238.54C249.396 238.434 249.226 238.272 249.109 238.074C248.992 237.876 248.934 237.649 248.94 237.419L249.033 232.543C249.036 232.342 248.991 232.144 248.902 231.965C248.812 231.786 248.68 231.632 248.518 231.514L244.552 228.658C244.372 228.524 244.232 228.343 244.148 228.135C244.064 227.927 244.039 227.7 244.076 227.478C244.113 227.257 244.21 227.05 244.357 226.881C244.504 226.711 244.695 226.585 244.909 226.516L249.59 225.088C249.781 225.029 249.954 224.925 250.096 224.784C250.238 224.644 250.344 224.472 250.405 224.282L251.884 219.633C251.949 219.412 252.075 219.213 252.247 219.059C252.42 218.905 252.632 218.803 252.86 218.764C253.087 218.724 253.322 218.749 253.536 218.836C253.75 218.923 253.935 219.068 254.071 219.255Z" fill="white"/>
<path d="M433.746 314.374L433.781 308.362H445.052L445.094 317.152L444.38 317.202C441.271 317.373 428.557 317.873 426.513 317.244C424.176 316.53 433.746 314.374 433.746 314.374Z" fill="#FF725E"/>
<g opacity="0.6">
<path d="M441.021 317.202C441.183 316.253 441.693 315.398 442.45 314.803C443.194 314.211 444.132 313.918 445.08 313.981V317.13L441.021 317.202Z" fill="white"/>
</g>
<g opacity="0.6">
<path d="M429.086 315.588C429.086 315.588 425.734 316.559 426.156 317.109C426.577 317.659 439.434 317.644 445.109 317.109V316.859L430.101 317.009C430.101 317.009 429.743 315.588 429.086 315.588Z" fill="white"/>
</g>
<path d="M445.173 316.802H444.98H444.423L442.372 316.888C440.642 316.952 438.255 317.009 435.611 317.016C432.967 317.023 430.608 316.973 428.85 316.916L426.806 316.838L426.249 316.802H426.056H426.806L428.857 316.845C430.587 316.845 432.974 316.909 435.611 316.902C438.248 316.895 440.613 316.852 442.372 316.816L444.423 316.766H445.137L445.173 316.802Z" fill="#263238"/>
<path d="M430.086 317.252C429.996 316.914 429.866 316.588 429.701 316.281C429.491 315.994 429.251 315.731 428.986 315.495C429.336 315.626 429.625 315.88 429.801 316.209C430.022 316.509 430.123 316.881 430.086 317.252Z" fill="#263238"/>
<path d="M433.624 315.302C433.624 315.302 433.431 315.131 433.267 314.867C433.102 314.603 432.995 314.389 433.031 314.367C433.067 314.346 433.217 314.538 433.381 314.796C433.499 314.944 433.583 315.117 433.624 315.302Z" fill="#263238"/>
<path d="M434.517 314.817C434.517 314.817 434.31 314.724 434.117 314.553C433.924 314.381 433.788 314.217 433.81 314.188C433.831 314.16 434.01 314.281 434.21 314.453C434.41 314.624 434.56 314.788 434.517 314.817Z" fill="#263238"/>
<path d="M435.11 313.753C435.11 313.796 434.846 313.824 434.524 313.832C434.203 313.839 433.931 313.832 433.931 313.767C434.121 313.7 434.324 313.675 434.524 313.696C434.721 313.671 434.922 313.69 435.11 313.753Z" fill="#263238"/>
<path d="M435.311 313.003C435.116 313.132 434.887 313.199 434.653 313.196C434.412 313.239 434.163 313.209 433.938 313.11C434.158 313.07 434.38 313.053 434.603 313.06C434.837 313.019 435.074 313 435.311 313.003Z" fill="#263238"/>
<path d="M433.238 314.317C433.002 314.357 432.76 314.357 432.523 314.317C432.261 314.284 432.003 314.227 431.752 314.146C431.598 314.102 431.449 314.043 431.309 313.967C431.222 313.917 431.158 313.835 431.13 313.739C431.119 313.685 431.124 313.63 431.144 313.579C431.164 313.528 431.199 313.484 431.244 313.453C431.519 313.318 431.833 313.282 432.132 313.353C432.43 313.423 432.695 313.595 432.881 313.839C432.994 313.979 433.074 314.142 433.117 314.317C433.152 314.446 433.117 314.517 433.117 314.517C433.045 314.292 432.934 314.082 432.788 313.896C432.619 313.711 432.405 313.573 432.166 313.496C432.026 313.45 431.878 313.432 431.731 313.443C431.584 313.454 431.44 313.494 431.309 313.56C431.194 313.646 431.237 313.782 431.366 313.853C431.494 313.926 431.631 313.984 431.773 314.024C432.005 314.11 432.244 314.175 432.488 314.217C432.967 314.296 433.238 314.296 433.238 314.317Z" fill="#263238"/>
<path d="M433.088 314.353C432.999 314.202 432.968 314.024 433.002 313.853C433.028 313.664 433.096 313.483 433.202 313.325C433.264 313.218 433.351 313.129 433.456 313.064C433.561 312.999 433.68 312.961 433.802 312.953C433.876 312.969 433.941 313.013 433.982 313.076C434.024 313.138 434.039 313.215 434.024 313.289C434.013 313.405 433.971 313.516 433.903 313.61C433.808 313.77 433.696 313.919 433.567 314.053C433.454 314.183 433.312 314.283 433.152 314.346C433.152 314.346 433.295 314.217 433.495 313.982C433.609 313.848 433.709 313.705 433.795 313.553C433.895 313.396 433.96 313.125 433.795 313.089C433.631 313.053 433.431 313.253 433.317 313.396C433.217 313.537 433.148 313.698 433.116 313.867C433.09 314.028 433.08 314.19 433.088 314.353Z" fill="#263238"/>
<path d="M445.237 313.932C445.237 313.932 444.916 313.932 444.408 313.967C443.749 314.035 443.122 314.282 442.593 314.681C442.077 315.102 441.684 315.655 441.457 316.281C441.285 316.766 441.271 317.087 441.242 317.087C441.233 317.012 441.233 316.935 441.242 316.859C441.265 316.654 441.306 316.45 441.364 316.252C441.567 315.591 441.965 315.007 442.506 314.575C443.046 314.143 443.704 313.884 444.394 313.832C444.601 313.812 444.809 313.812 445.016 313.832C445.095 313.853 445.169 313.887 445.237 313.932Z" fill="#263238"/>
<path d="M444.072 308.898C444.184 310.438 444.206 311.982 444.137 313.525C444.025 311.985 444.003 310.44 444.072 308.898Z" fill="#263238"/>
<path d="M439.813 315.738C439.275 315.865 438.722 315.92 438.169 315.902C437.618 315.933 437.065 315.89 436.525 315.774C436.525 315.731 437.24 315.774 438.169 315.774C439.098 315.774 439.813 315.695 439.813 315.738Z" fill="#263238"/>
<path d="M442.021 315.731C442.021 315.731 441.964 315.888 441.893 316.059C441.821 316.231 441.771 316.373 441.735 316.373C441.7 316.373 441.678 316.195 441.735 316.002C441.793 315.809 442 315.702 442.021 315.731Z" fill="#263238"/>
<path d="M442.857 314.695C442.857 314.695 442.807 314.838 442.693 314.96C442.579 315.081 442.457 315.152 442.436 315.124C442.414 315.095 442.479 314.981 442.593 314.86C442.707 314.738 442.829 314.667 442.857 314.695Z" fill="#263238"/>
<path d="M444.044 314.224C444.044 314.26 443.887 314.26 443.722 314.317C443.558 314.374 443.436 314.467 443.408 314.439C443.379 314.41 443.472 314.26 443.679 314.189C443.887 314.117 444.058 314.16 444.044 314.224Z" fill="#263238"/>
<path d="M444.894 313.996C444.894 314.031 444.844 314.089 444.751 314.124C444.658 314.16 444.565 314.167 444.551 314.124C444.537 314.081 444.608 314.031 444.701 313.996C444.794 313.96 444.88 313.96 444.894 313.996Z" fill="#263238"/>
<path d="M395.539 115.961L494.721 119.952V142.8L394.074 139.109L395.539 115.961Z" fill="#FF725E"/>
<path d="M377.83 124.457C377.83 124.457 372.184 123.786 370.848 126.214C370.848 126.214 371.991 129.298 377.587 129.07L377.83 124.457Z" fill="#FF725E"/>
<path d="M377.344 123.393L376.779 129.712L383.576 130.376C383.576 130.376 386.37 130.605 389.593 134.068C392.816 137.531 394.089 139.109 394.089 139.109L395.554 115.961L391.087 120.145C390.2 120.972 389.18 121.645 388.071 122.137C386.728 122.798 385.303 123.278 383.833 123.565C381.669 123.652 379.501 123.595 377.344 123.393Z" fill="#263238"/>
<path d="M494.721 119.952C494.721 119.952 500.702 123.372 499.509 132.211C498.487 139.83 494.721 142.807 494.721 142.807V119.952Z" fill="#263238"/>
<path opacity="0.4" d="M395.068 124.4L494.721 128.042V134.225L394.696 130.248L395.068 124.4Z" fill="white"/>
<g opacity="0.3">
<path d="M452.384 119.731C453.935 119.845 454.971 121.344 456.336 122.094C457.701 122.844 459.324 122.808 460.624 123.572C461.202 123.902 461.695 124.361 462.064 124.914C462.434 125.466 462.669 126.097 462.753 126.757C462.836 127.416 462.764 128.086 462.544 128.713C462.323 129.34 461.96 129.907 461.482 130.369C460.317 131.476 458.437 132.083 458.094 133.654C457.944 134.368 457.844 135.424 457.137 135.31C456.744 135.253 456.551 134.81 456.265 134.539C455.657 133.954 454.6 134.211 453.992 134.796C453.439 135.441 452.96 136.145 452.563 136.895C452.365 137.267 452.072 137.58 451.715 137.803C451.357 138.026 450.947 138.152 450.526 138.166C450.526 139.109 450.526 140.244 450.526 141.186L445.638 140.944L446.188 121.059L452.384 119.731Z" fill="black"/>
</g>
<path d="M468.278 314.731V308.727H456.972L456.929 317.516L457.644 317.559C460.753 317.737 473.459 318.23 475.511 317.602C477.847 316.895 468.278 314.731 468.278 314.731Z" fill="#FF725E"/>
<g opacity="0.6">
<path d="M461.003 317.566C460.841 316.615 460.331 315.757 459.573 315.16C458.831 314.567 457.891 314.276 456.943 314.346V317.487L461.003 317.566Z" fill="white"/>
</g>
<g opacity="0.6">
<path d="M472.938 315.945C472.938 315.945 476.29 316.916 475.868 317.466C475.446 318.016 462.589 318.001 456.915 317.502V317.245L471.923 317.394C471.923 317.394 472.28 315.974 472.938 315.945Z" fill="white"/>
</g>
<path d="M456.851 317.159C456.915 317.168 456.98 317.168 457.044 317.159H457.601L459.652 317.252C461.382 317.316 463.769 317.373 466.413 317.38C469.057 317.387 471.416 317.337 473.174 317.28L475.218 317.195H475.775H475.968H475.253L473.202 317.23C471.473 317.266 469.086 317.295 466.449 317.287C463.811 317.28 461.446 317.245 459.688 317.202L457.637 317.159H457.079H456.851Z" fill="#263238"/>
<path d="M471.937 317.616C472.026 317.275 472.155 316.947 472.323 316.638C472.533 316.352 472.773 316.088 473.038 315.852C472.69 315.986 472.401 316.239 472.223 316.566C472 316.868 471.897 317.243 471.937 317.616Z" fill="#263238"/>
<path d="M468.4 315.659C468.4 315.659 468.593 315.488 468.757 315.231C468.921 314.974 469.029 314.745 468.993 314.724C468.957 314.703 468.807 314.895 468.643 315.152C468.478 315.409 468.364 315.638 468.4 315.659Z" fill="#263238"/>
<path d="M467.485 315.174C467.485 315.174 467.692 315.088 467.885 314.91C468.078 314.731 468.214 314.574 468.193 314.546C468.171 314.517 467.985 314.638 467.792 314.81C467.599 314.981 467.464 315.153 467.485 315.174Z" fill="#263238"/>
<path d="M466.913 314.117C467.101 314.184 467.301 314.209 467.499 314.189C467.701 314.225 467.909 314.215 468.107 314.16C468.107 314.117 467.842 314.089 467.513 314.081C467.185 314.074 466.913 314.074 466.913 314.117Z" fill="#263238"/>
<path d="M466.713 313.367C466.911 313.488 467.138 313.553 467.37 313.553C467.6 313.596 467.837 313.566 468.049 313.467C467.832 313.437 467.611 313.43 467.392 313.446C467.169 313.397 466.941 313.37 466.713 313.367Z" fill="#263238"/>
<path d="M468.821 314.681C469.058 314.723 469.3 314.723 469.536 314.681C469.797 314.647 470.055 314.593 470.308 314.517C470.461 314.47 470.61 314.408 470.751 314.331C470.837 314.284 470.901 314.204 470.93 314.11C470.94 314.055 470.935 313.999 470.915 313.947C470.895 313.895 470.86 313.85 470.815 313.817C470.54 313.682 470.226 313.646 469.928 313.717C469.629 313.787 469.364 313.959 469.179 314.203C469.067 314.348 468.985 314.512 468.936 314.688C468.919 314.752 468.919 314.818 468.936 314.881C469.007 314.658 469.118 314.45 469.264 314.267C469.427 314.075 469.644 313.936 469.886 313.867C470.025 313.818 470.173 313.798 470.321 313.807C470.468 313.817 470.612 313.857 470.744 313.924C470.858 314.01 470.815 314.146 470.687 314.224C470.557 314.294 470.42 314.352 470.279 314.396C470.045 314.475 469.807 314.54 469.565 314.588C469.057 314.653 468.821 314.66 468.821 314.681Z" fill="#263238"/>
<path d="M468.971 314.717C469.057 314.563 469.087 314.384 469.057 314.21C469.03 314.021 468.962 313.841 468.857 313.682C468.797 313.575 468.71 313.485 468.605 313.421C468.499 313.357 468.38 313.322 468.257 313.318C468.183 313.332 468.118 313.374 468.075 313.435C468.032 313.497 468.015 313.572 468.028 313.646C468.046 313.764 468.09 313.876 468.157 313.974C468.253 314.131 468.365 314.277 468.492 314.41C468.605 314.54 468.747 314.64 468.907 314.703C468.907 314.703 468.764 314.574 468.564 314.346C468.448 314.212 468.348 314.066 468.264 313.91C468.164 313.753 468.099 313.482 468.264 313.446C468.428 313.41 468.628 313.61 468.743 313.76C468.843 313.898 468.912 314.057 468.943 314.224C468.965 314.388 468.974 314.552 468.971 314.717Z" fill="#263238"/>
<path d="M456.779 314.296C456.779 314.296 457.101 314.296 457.608 314.296C458.267 314.363 458.895 314.61 459.424 315.01C459.941 315.433 460.333 315.988 460.56 316.616C460.643 316.879 460.712 317.146 460.767 317.416C460.767 317.416 460.767 317.337 460.767 317.187C460.744 316.981 460.701 316.778 460.638 316.58C460.439 315.919 460.043 315.335 459.503 314.904C458.963 314.473 458.305 314.216 457.615 314.167C457.409 314.144 457.2 314.144 456.994 314.167C456.916 314.198 456.843 314.241 456.779 314.296Z" fill="#263238"/>
<path d="M457.951 309.255C457.876 310.024 457.843 310.796 457.851 311.568C457.817 312.339 457.829 313.112 457.887 313.882C457.999 312.342 458.02 310.797 457.951 309.255Z" fill="#263238"/>
<path d="M462.204 316.095C462.742 316.221 463.295 316.276 463.847 316.259C464.401 316.29 464.956 316.247 465.498 316.131C465.498 316.095 464.784 316.131 463.854 316.131C462.925 316.131 462.211 316.059 462.204 316.095Z" fill="#263238"/>
<path d="M459.995 316.088C459.995 316.088 460.059 316.245 460.131 316.416C460.202 316.588 460.252 316.738 460.288 316.73C460.324 316.723 460.345 316.552 460.288 316.359C460.231 316.166 460.024 316.066 459.995 316.088Z" fill="#263238"/>
<path d="M459.166 315.053C459.166 315.053 459.216 315.203 459.33 315.317C459.445 315.431 459.559 315.51 459.588 315.481C459.616 315.452 459.545 315.338 459.43 315.224C459.316 315.11 459.195 315.031 459.166 315.053Z" fill="#263238"/>
<path d="M457.98 314.581C457.98 314.617 458.137 314.617 458.301 314.674C458.466 314.731 458.587 314.824 458.616 314.796C458.644 314.767 458.552 314.617 458.344 314.546C458.137 314.474 457.966 314.546 457.98 314.581Z" fill="#263238"/>
<path d="M457.129 314.36C457.129 314.396 457.179 314.453 457.272 314.489C457.365 314.524 457.458 314.524 457.465 314.489C457.472 314.453 457.415 314.396 457.322 314.36C457.229 314.324 457.144 314.324 457.129 314.36Z" fill="#263238"/>
<path d="M427.635 146.313C427.635 146.313 410.162 153.696 409.604 153.453C409.047 153.21 408.639 139.68 408.639 139.68L399.92 139.359C399.92 139.359 398.291 159.965 403.494 163.306C410.64 167.876 427.992 158.372 427.992 158.372L427.635 146.313Z" fill="#FFBE9D"/>
<path d="M436.433 141.479C436.433 139.294 436.433 137.395 436.433 137.395C436.433 137.395 432.023 136.931 431.752 132.561C431.48 128.192 431.752 118.117 431.752 118.117L439.784 114.197L448.618 120.88L447.689 141.679C447.622 143.121 447.003 144.483 445.958 145.48C444.913 146.477 443.524 147.034 442.079 147.034C440.593 147.044 439.164 146.464 438.106 145.423C437.048 144.381 436.446 142.963 436.433 141.479Z" fill="#FFBE9D"/>
<path d="M432.659 125.464C432.658 125.576 432.69 125.686 432.751 125.78C432.813 125.874 432.901 125.947 433.004 125.991C433.108 126.035 433.222 126.046 433.332 126.025C433.442 126.003 433.544 125.949 433.623 125.87C433.702 125.791 433.756 125.69 433.778 125.58C433.799 125.47 433.788 125.356 433.744 125.252C433.7 125.149 433.627 125.061 433.533 124.999C433.439 124.938 433.329 124.906 433.217 124.907C433.069 124.907 432.927 124.966 432.822 125.07C432.718 125.175 432.659 125.316 432.659 125.464Z" fill="#263238"/>
<path d="M432.116 124.85C432.187 124.929 432.602 124.572 433.209 124.543C433.817 124.515 434.26 124.8 434.324 124.722C434.389 124.643 434.281 124.55 434.081 124.415C433.815 124.241 433.499 124.158 433.181 124.179C432.865 124.195 432.563 124.316 432.323 124.522C432.145 124.679 432.08 124.822 432.116 124.85Z" fill="#263238"/>
<path d="M439.148 125.464C439.148 125.574 439.181 125.682 439.242 125.774C439.304 125.865 439.391 125.937 439.493 125.979C439.594 126.021 439.707 126.032 439.815 126.01C439.923 125.989 440.022 125.936 440.1 125.858C440.178 125.78 440.231 125.681 440.253 125.573C440.274 125.465 440.263 125.353 440.221 125.251C440.179 125.149 440.107 125.062 440.016 125.001C439.924 124.94 439.816 124.907 439.706 124.907C439.558 124.907 439.416 124.966 439.312 125.07C439.207 125.175 439.148 125.316 439.148 125.464Z" fill="#263238"/>
<path d="M438.805 124.85C438.877 124.929 439.291 124.572 439.891 124.543C440.492 124.514 440.949 124.8 441.013 124.722C441.078 124.643 440.963 124.55 440.77 124.415C440.503 124.242 440.188 124.16 439.87 124.179C439.553 124.198 439.25 124.318 439.005 124.522C438.805 124.679 438.762 124.821 438.805 124.85Z" fill="#263238"/>
<path d="M436.661 129.948C436.338 130.037 436.002 130.068 435.668 130.041C435.575 130.05 435.482 130.05 435.389 130.041C435.325 130.025 435.265 129.995 435.215 129.951C435.166 129.908 435.127 129.853 435.103 129.791C435.042 129.571 435.06 129.336 435.153 129.127L435.539 127.87C435.835 126.779 436.242 125.722 436.754 124.714C436.591 125.833 436.304 126.93 435.897 127.984L435.446 129.234C435.374 129.37 435.342 129.523 435.354 129.677C435.354 129.755 435.482 129.791 435.639 129.798C436.247 129.827 436.661 129.884 436.661 129.948Z" fill="#263238"/>
<path d="M439.52 130.234C439.52 130.733 440.299 131.09 441.228 131.112C442.157 131.133 442.936 130.805 442.958 130.312C442.979 129.819 442.243 129.334 441.25 129.313C440.256 129.291 439.52 129.741 439.52 130.234Z" fill="#EB996E"/>
<path d="M438.612 130.505C439.227 130.105 436.933 131.512 435.704 131.512C435.923 131.817 436.24 132.039 436.602 132.141C436.964 132.244 437.35 132.221 437.698 132.076C438.984 131.533 438.612 130.505 438.612 130.505Z" fill="white"/>
<path d="M436.189 137.395C438.267 137.31 440.276 136.631 441.978 135.439C441.978 135.439 440.663 138.652 436.261 138.466L436.189 137.395Z" fill="#EB996E"/>
<path d="M455.042 124.522V125.3C454.949 124.493 454.721 122.651 454.592 122.151C452.205 113.04 444.194 111.341 442.607 111.341C440.906 111.341 437.933 110.413 433.595 114.911C432.368 116.088 431.526 117.609 431.18 119.274C430.834 120.938 431.001 122.668 431.659 124.236L432.373 123.565L438.805 121.916C438.298 120.195 439.041 118.053 439.463 117.06L439.506 117.017C440.778 123.558 447.989 124.236 447.989 124.236L447.381 136.374C455.957 134.568 455.042 124.522 455.042 124.522Z" fill="#263238"/>
<path d="M454.828 124.079C454.818 123.554 454.987 123.041 455.306 122.623C455.625 122.206 456.076 121.909 456.586 121.78C457.623 121.551 458.707 121.722 459.623 122.258C460.109 122.468 460.541 122.784 460.89 123.181C461.238 123.579 461.494 124.049 461.639 124.557C461.882 125.814 461.067 127.013 460.252 128.013C459.784 128.655 459.211 129.215 458.558 129.669C458.229 129.894 457.853 130.041 457.458 130.102C457.064 130.163 456.661 130.134 456.279 130.019C455.656 129.751 455.15 129.27 454.849 128.663C454.303 127.633 454.117 126.451 454.32 125.303C454.523 124.156 455.104 123.109 455.971 122.33" fill="#263238"/>
<path d="M439.084 113.655C438.421 113.918 437.743 114.142 437.054 114.326C435.468 114.886 434.041 115.822 432.895 117.053C431.749 118.284 430.918 119.773 430.472 121.394C430.108 122.637 430.065 123.465 429.943 123.458C429.822 123.451 429.715 122.622 429.943 121.273C430.279 119.504 431.108 117.866 432.336 116.548C433.564 115.23 435.141 114.286 436.883 113.826C438.226 113.483 439.084 113.569 439.084 113.655Z" fill="#263238"/>
<path d="M449.118 129.755C449.051 129.033 449.129 128.305 449.347 127.613C449.465 127.267 449.673 126.958 449.951 126.72C450.229 126.481 450.565 126.321 450.926 126.257C451.344 126.24 451.755 126.376 452.081 126.638C452.407 126.901 452.626 127.273 452.698 127.685C452.744 128.102 452.666 128.523 452.474 128.896C452.282 129.269 451.985 129.578 451.619 129.784C451.246 129.978 450.833 130.086 450.412 130.098C449.992 130.111 449.573 130.028 449.189 129.855" fill="#FFBE9D"/>
<path d="M450.404 129.412C450.404 129.355 450.576 129.298 450.783 129.113C450.915 128.999 451.023 128.861 451.101 128.705C451.178 128.549 451.223 128.379 451.233 128.206C451.232 128.032 451.194 127.86 451.123 127.702C451.051 127.543 450.948 127.401 450.819 127.285C450.619 127.092 450.44 127.021 450.454 126.963C450.469 126.906 450.676 126.892 450.976 127.071C451.171 127.189 451.332 127.357 451.442 127.557C451.552 127.757 451.607 127.983 451.603 128.211C451.599 128.439 451.534 128.662 451.417 128.858C451.299 129.054 451.133 129.215 450.933 129.327C450.626 129.491 450.404 129.455 450.404 129.412Z" fill="#EB996E"/>
<path d="M436.997 125.186C436.997 125.186 436.997 125.114 436.997 124.971C436.992 124.758 437.014 124.544 437.062 124.336C437.23 123.555 437.668 122.857 438.298 122.365C438.77 121.998 439.327 121.755 439.918 121.659C440.509 121.563 441.114 121.617 441.678 121.816C442.381 122.058 442.989 122.514 443.42 123.118C443.851 123.723 444.083 124.447 444.083 125.189C444.083 125.931 443.851 126.655 443.42 127.26C442.989 127.865 442.381 128.32 441.678 128.563C441.114 128.761 440.509 128.815 439.918 128.719C439.327 128.623 438.77 128.38 438.298 128.013C437.668 127.521 437.23 126.824 437.062 126.042C437.014 125.834 436.992 125.621 436.997 125.407C436.997 125.264 436.997 125.186 436.997 125.186C436.997 125.186 436.997 125.493 437.176 126.007C437.385 126.729 437.827 127.362 438.434 127.806C438.919 128.167 439.496 128.387 440.1 128.44C440.703 128.493 441.309 128.377 441.85 128.105C442.391 127.834 442.847 127.417 443.164 126.902C443.482 126.387 443.651 125.794 443.651 125.189C443.651 124.584 443.482 123.991 443.164 123.476C442.847 122.961 442.391 122.545 441.85 122.273C441.309 122.002 440.703 121.886 440.1 121.939C439.496 121.991 438.919 122.211 438.434 122.572C437.827 123.017 437.385 123.649 437.176 124.372C437.033 124.886 437.033 125.193 436.997 125.186Z" fill="#263238"/>
<path d="M429.1 125.186C429.1 125.186 429.1 125.114 429.1 124.971C429.095 124.758 429.117 124.544 429.165 124.336C429.333 123.555 429.771 122.857 430.401 122.365C430.873 121.998 431.43 121.755 432.021 121.659C432.612 121.563 433.217 121.617 433.781 121.816C434.484 122.058 435.092 122.514 435.523 123.118C435.954 123.723 436.186 124.447 436.186 125.189C436.186 125.931 435.954 126.655 435.523 127.26C435.092 127.865 434.484 128.32 433.781 128.563C433.217 128.761 432.612 128.815 432.021 128.719C431.43 128.623 430.873 128.38 430.401 128.013C429.771 127.521 429.333 126.824 429.165 126.042C429.117 125.834 429.095 125.621 429.1 125.407C429.1 125.264 429.1 125.186 429.1 125.186C429.1 125.186 429.1 125.493 429.279 126.007C429.487 126.727 429.927 127.359 430.53 127.806C430.971 128.13 431.486 128.339 432.029 128.416C432.572 128.492 433.125 128.432 433.638 128.241C434.262 128.01 434.8 127.594 435.18 127.048C435.56 126.502 435.763 125.854 435.763 125.189C435.763 124.525 435.56 123.876 435.18 123.33C434.8 122.785 434.262 122.368 433.638 122.137C433.125 121.947 432.572 121.887 432.029 121.963C431.486 122.039 430.971 122.248 430.53 122.572C429.927 123.019 429.487 123.651 429.279 124.372C429.129 124.886 429.136 125.193 429.1 125.186Z" fill="#263238"/>
<path d="M435.947 125.3C435.947 125.193 436.226 125.114 436.576 125.114C436.926 125.114 437.205 125.193 437.205 125.3C437.205 125.407 436.919 125.486 436.576 125.486C436.233 125.486 435.947 125.4 435.947 125.3Z" fill="#263238"/>
<path d="M443.736 125.907C444.771 125.923 445.8 126.062 446.802 126.321C447.83 126.459 448.838 126.721 449.804 127.099C448.766 127.087 447.734 126.948 446.731 126.685C445.705 126.546 444.7 126.285 443.736 125.907Z" fill="#263238"/>
<path d="M423.926 196.85L429.4 312.325L446.945 312.696L442.393 212.908L454.271 312.275L472.187 312.718L458.165 195.586" fill="#263238"/>
<path d="M437.662 312.503C437.562 312.503 436.297 286.7 434.846 254.862C433.395 223.025 432.295 197.214 432.402 197.207C432.509 197.2 433.803 223.004 435.232 254.848C436.661 286.692 437.769 312.496 437.662 312.503Z" fill="#455A64"/>
<path d="M463.854 311.568C463.747 311.568 460.596 286.521 456.808 255.598C453.02 224.675 450.033 199.592 450.14 199.577C450.247 199.563 453.392 224.625 457.179 255.555C460.967 286.485 463.955 311.561 463.854 311.568Z" fill="#455A64"/>
<path d="M462.639 169.968L471.63 158.737L460.581 147.605C458.457 145.392 455.846 143.703 452.956 142.672C451.547 142.173 450.074 141.877 448.582 141.793V140.901L443.736 140.994C443.736 140.994 443.486 141.758 443.222 142.622C442.965 143.336 442.836 144.721 442.507 144.721C442.178 144.721 441.707 143.293 441.235 142.579L440.406 140.915L435.932 140.701V141.822C433.003 142.201 430.155 143.052 427.499 144.342L410.998 151.025L416.286 165.598L427.478 161.835C427.406 162.035 427.328 162.235 427.27 162.442C426.927 163.661 426.913 164.95 427.232 166.176C427.551 167.402 428.191 168.521 429.086 169.418L428.871 181.17L423.869 196.821L458.108 197.178L454.213 180.278L455.986 163.528L462.639 169.968Z" fill="#455A64"/>
<path d="M440.313 141.108C440.299 141.465 440.219 141.815 440.078 142.143L439.727 143.221C439.649 143.428 439.592 143.628 439.492 143.871C439.439 144.023 439.332 144.15 439.191 144.228C439.109 144.268 439.017 144.285 438.926 144.279C438.834 144.273 438.746 144.243 438.67 144.192C437.646 143.578 436.688 142.861 435.811 142.05C436.892 142.555 437.919 143.167 438.877 143.878C439.141 144.128 439.27 143.493 439.434 143.121L439.863 142.065C439.959 141.723 440.111 141.4 440.313 141.108Z" fill="#263238"/>
<path d="M448.982 142.022C448.227 143.21 447.229 144.225 446.052 144.999L445.802 145.178L445.652 145.285L445.545 145.128C444.761 144.081 444.212 142.878 443.937 141.601C444.037 141.601 444.651 143.164 445.852 144.921L445.595 144.871L445.83 144.699C447.689 143.371 448.896 141.95 448.982 142.022Z" fill="#263238"/>
<path d="M441.107 197.064C441.074 196.89 441.059 196.713 441.064 196.536C441.064 196.15 441.064 195.643 441.014 195.008C441.014 193.687 441.014 191.766 441.014 189.396C441.099 184.655 441.321 178.114 441.6 170.889C441.878 163.663 442.121 157.159 442.314 152.389C442.372 150.047 442.422 148.105 442.457 146.777C442.457 146.144 442.457 145.637 442.457 145.256C442.449 145.077 442.461 144.897 442.493 144.721C442.493 144.721 442.493 144.906 442.536 145.249C442.579 145.592 442.536 146.142 442.586 146.777C442.586 148.105 442.586 150.026 442.586 152.389C442.5 157.13 442.279 163.677 441.993 170.903C441.707 178.129 441.478 184.633 441.278 189.403C441.214 191.738 441.164 193.644 441.128 195.008C441.128 195.643 441.128 196.15 441.128 196.536C441.136 196.712 441.129 196.889 441.107 197.064Z" fill="#263238"/>
<path d="M445.388 153.339C445.388 153.296 445.681 153.246 445.945 153.588C446.022 153.688 446.075 153.805 446.1 153.929C446.125 154.053 446.121 154.18 446.088 154.302C446.039 154.459 445.945 154.598 445.818 154.702C445.691 154.806 445.536 154.87 445.373 154.888C445.214 154.916 445.05 154.898 444.902 154.834C444.753 154.771 444.626 154.665 444.537 154.531C444.474 154.424 444.435 154.305 444.422 154.182C444.41 154.059 444.425 153.934 444.466 153.817C444.623 153.417 444.93 153.374 444.93 153.417C444.93 153.46 444.766 153.588 444.723 153.888C444.696 154.05 444.732 154.216 444.823 154.352C444.883 154.422 444.96 154.474 445.046 154.504C445.133 154.534 445.226 154.541 445.316 154.524C445.409 154.516 445.497 154.482 445.572 154.427C445.646 154.371 445.704 154.296 445.738 154.21C445.788 154.054 445.775 153.885 445.702 153.738C445.595 153.453 445.373 153.396 445.388 153.339Z" fill="#263238"/>
<path d="M445.502 165.163C445.502 165.12 445.759 165.077 446.002 165.362C446.069 165.448 446.118 165.547 446.144 165.653C446.169 165.759 446.172 165.869 446.152 165.976C446.118 166.115 446.043 166.239 445.937 166.335C445.832 166.43 445.7 166.492 445.559 166.512C445.421 166.534 445.281 166.515 445.154 166.458C445.027 166.401 444.919 166.308 444.844 166.191C444.79 166.092 444.761 165.982 444.761 165.869C444.761 165.757 444.79 165.646 444.844 165.548C445.044 165.213 445.344 165.262 445.323 165.312C445.302 165.362 445.152 165.42 445.08 165.655C445.052 165.716 445.043 165.784 445.052 165.851C445.061 165.918 445.089 165.98 445.132 166.032C445.176 166.083 445.233 166.121 445.297 166.142C445.361 166.163 445.429 166.165 445.495 166.148C445.563 166.136 445.628 166.108 445.683 166.065C445.739 166.023 445.782 165.967 445.811 165.903C445.839 165.84 445.851 165.77 445.846 165.701C445.84 165.631 445.818 165.564 445.78 165.505C445.673 165.284 445.495 165.22 445.502 165.163Z" fill="#263238"/>
<path d="M419.03 164.527C418.688 163.86 418.397 163.167 418.158 162.456C417.615 161.064 416.929 159.336 416.179 157.423L414.106 152.425C413.782 151.749 413.509 151.05 413.292 150.333C413.702 150.961 414.053 151.625 414.342 152.318C414.942 153.567 415.729 155.324 416.522 157.316C417.315 159.308 417.951 161.086 418.409 162.407C418.683 163.092 418.891 163.802 419.03 164.527Z" fill="#263238"/>
<path d="M470.251 157.216C470.322 157.287 468.107 159.715 465.248 162.628C463.588 164.433 461.837 166.154 460.002 167.783C461.576 165.894 463.246 164.088 465.005 162.371C467.821 159.458 470.172 157.144 470.251 157.216Z" fill="#263238"/>
<path d="M438.174 190.62L437.486 187.291C437.203 185.945 437.19 184.556 437.447 183.204C437.704 181.853 438.226 180.566 438.982 179.416C439.739 178.267 440.715 177.278 441.856 176.507C442.996 175.736 444.278 175.198 445.627 174.923L468.317 170.241L473.232 194.015L450.542 198.697C449.199 198.978 447.814 198.992 446.465 198.738C445.117 198.484 443.832 197.968 442.683 197.218C441.535 196.468 440.545 195.499 439.772 194.367C438.998 193.235 438.455 191.961 438.174 190.62Z" fill="#FF725E"/>
<path d="M486.688 166.433L450.183 173.973C450.035 173.257 450.178 172.512 450.58 171.902C450.982 171.291 451.61 170.865 452.327 170.717L483.436 164.291C484.153 164.144 484.899 164.287 485.51 164.688C486.121 165.09 486.547 165.718 486.695 166.433H486.688Z" fill="#FF725E"/>
<g opacity="0.4">
<path d="M468.778 170.125C468.143 170.362 467.488 170.541 466.82 170.66C465.605 170.953 463.919 171.317 462.053 171.71C460.188 172.103 458.48 172.424 457.251 172.645C456.592 172.801 455.919 172.897 455.243 172.931C455.874 172.689 456.528 172.507 457.194 172.388C458.416 172.103 460.102 171.731 461.968 171.346C463.833 170.96 465.541 170.632 466.763 170.41C467.425 170.254 468.099 170.159 468.778 170.125Z" fill="black"/>
</g>
<g opacity="0.3">
<path d="M470.151 179.507C470.065 178.943 469.979 178.379 469.901 177.822C465.636 181.274 461.705 185.118 458.159 189.303C457.079 190.438 456.202 191.75 455.564 193.18C455.248 193.898 455.101 194.679 455.134 195.462C455.168 196.246 455.381 197.011 455.757 197.7L465.241 195.558L470.151 179.507Z" fill="black"/>
</g>
<path d="M479.634 184.662C481.376 182.661 482.332 180.096 482.322 177.445C482.313 174.793 481.34 172.235 479.584 170.246L470.465 159.936L463.226 168.897C463.547 169.111 471.03 177.986 471.03 177.986L459.595 192.216C457.837 194.415 456.879 197.5 457.794 200.163L459.316 203.354C459.846 204.457 460.786 205.309 461.935 205.73C463.084 206.151 464.352 206.108 465.47 205.611L468.207 204.383C468.363 204.314 468.5 204.207 468.603 204.071C468.707 203.935 468.775 203.776 468.801 203.607C468.826 203.438 468.809 203.266 468.75 203.106C468.691 202.945 468.593 202.802 468.464 202.69L467.792 202.112C467.551 201.9 467.268 201.739 466.962 201.641C466.656 201.543 466.333 201.509 466.013 201.541L462.532 201.898L462.368 201.255L479.634 184.662Z" fill="#FFBE9D"/>
<path d="M468.764 203.14C468.409 203.306 468.041 203.445 467.664 203.554C466.778 203.942 465.828 204.164 464.862 204.211C464.301 204.16 463.777 203.906 463.39 203.497C463.077 203.184 462.821 202.819 462.632 202.419C462.42 202.07 462.327 201.662 462.368 201.255C462.432 201.255 462.497 201.691 462.861 202.298C463.069 202.65 463.326 202.969 463.626 203.247C463.965 203.587 464.407 203.803 464.884 203.861C465.803 203.8 466.711 203.62 467.585 203.326C467.958 203.17 468.362 203.107 468.764 203.14Z" fill="#EB996E"/>
<path d="M467.792 202.062C466.965 202.49 466.082 202.8 465.169 202.983C464.497 203.169 463.78 203.103 463.154 202.797C462.682 202.533 462.546 202.198 462.582 202.183C462.618 202.169 462.832 202.39 463.297 202.562C463.884 202.766 464.52 202.785 465.119 202.619C465.983 202.32 466.881 202.133 467.792 202.062Z" fill="#EB996E"/>
<path d="M82.6511 188.253C82.3223 188.167 75.826 197.699 75.6116 205.903C75.5943 206.706 75.6229 207.51 75.6973 208.309C75.9769 211.18 76.6676 213.996 77.7484 216.67C83.2371 230.529 88.9044 246.965 88.9973 250.707C89.2832 262.245 94.2787 314.039 94.2787 314.039L105.235 314.324L106.978 250.714L103.091 187.732L82.6511 188.253Z" fill="#FFBE9D"/>
<path d="M103.569 196.436C103.569 196.436 118.384 244.474 117.455 259.982C116.526 275.49 105.235 314.103 105.235 314.103L103.569 196.436Z" fill="#EB996E"/>
<path d="M78.213 188.325C78.213 188.325 69.9657 198.935 75.7545 215.628C81.4718 232.2 77.3768 252.442 77.3768 252.442C77.3768 252.442 84.6735 246.973 89.8477 249.386C95.7366 252.135 99.6601 255.419 107 252.242C114.625 248.915 120.686 247.044 127.654 253.556L116.876 215.999L110.645 192.087L78.213 188.325Z" fill="#263238"/>
<path d="M121.443 175.908C119.635 175.744 116.383 159.172 116.383 159.172L103.019 163.635C103.019 163.635 102.619 166.155 110.666 182.199C110.666 182.199 115.404 190.624 121.322 190.238L121.443 175.908Z" fill="#EB996E"/>
<path d="M102.197 143.321C102.197 143.321 112.317 142.329 117.027 154.61L117.069 154.724C117.155 154.952 117.234 155.188 117.32 155.438L121.257 166.512L110.409 171.917V173.145L111.588 195.357L76.9838 188.824L79.7781 184.805C82.4653 181.099 81.8578 175.894 80.7572 171.453L80.3856 169.939L75.6974 172.388C73.5693 167.534 72.6993 162.223 73.1675 156.944C73.1675 156.809 73.1675 156.68 73.1675 156.552C73.5405 152.512 75.4815 148.779 78.575 146.152C81.6685 143.524 85.6686 142.211 89.7192 142.493L102.197 143.321Z" fill="#FF725E"/>
<g opacity="0.3">
<path d="M85.6169 156.13C87.5251 163.335 91.0484 170.539 94.5932 177.086C94.9362 177.722 95.6866 178.436 96.2297 177.972C96.6442 177.622 96.4227 176.951 96.1726 176.472L85.6169 156.13Z" fill="black"/>
</g>
<path d="M109.544 160.05C109.835 160.588 110.074 161.152 110.259 161.735C110.637 162.792 111.173 164.234 111.688 165.891C111.938 166.682 112.027 167.514 111.952 168.34C111.86 169.008 111.655 169.655 111.345 170.253C111.094 170.814 110.765 171.336 110.366 171.803C110.571 171.237 110.81 170.684 111.08 170.146C111.345 169.563 111.516 168.941 111.588 168.304C111.642 167.522 111.547 166.737 111.309 165.991C110.823 164.427 110.38 163.013 110.001 161.814C109.785 161.244 109.632 160.653 109.544 160.05Z" fill="#263238"/>
<path d="M106.692 123.265C106.694 124.705 107.065 126.12 107.769 127.376C108.473 128.632 109.488 129.687 110.716 130.441C111.403 130.79 112.067 131.184 112.703 131.619C113.021 131.84 113.283 132.132 113.469 132.471C113.655 132.811 113.759 133.188 113.775 133.575C113.725 134.782 112.503 135.553 111.424 136.103C111.743 136.373 112.002 136.707 112.184 137.084C112.366 137.46 112.467 137.87 112.48 138.288C112.494 138.706 112.419 139.122 112.262 139.51C112.105 139.897 111.868 140.247 111.567 140.537C111.265 140.828 110.907 141.052 110.514 141.195C110.121 141.338 109.702 141.398 109.284 141.369C108.867 141.341 108.46 141.226 108.09 141.031C107.72 140.835 107.395 140.565 107.136 140.237C107.048 141.368 106.613 142.445 105.888 143.32C105.164 144.194 104.187 144.823 103.091 145.12C101.987 145.39 100.838 145.412 99.7257 145.183C98.6133 144.955 97.5656 144.482 96.6585 143.8C94.8488 142.42 93.436 140.588 92.5635 138.487" fill="#263238"/>
<path d="M112.56 127.87C112.56 127.87 112.703 128.027 112.696 128.392C112.683 128.644 112.612 128.89 112.488 129.111C112.364 129.332 112.191 129.52 111.981 129.662C111.649 129.85 111.273 129.949 110.891 129.949C110.509 129.949 110.134 129.85 109.801 129.662C109.005 129.24 108.35 128.595 107.915 127.806C107.106 126.429 106.588 124.9 106.392 123.315C106.281 122.668 106.281 122.006 106.392 121.359C106.45 121.359 106.471 122.073 106.685 123.279C106.96 124.805 107.497 126.271 108.272 127.613C108.649 128.356 109.226 128.979 109.937 129.413C110.222 129.575 110.542 129.665 110.87 129.675C111.198 129.685 111.523 129.615 111.817 129.47C112.004 129.355 112.165 129.201 112.289 129.019C112.412 128.836 112.495 128.63 112.531 128.413C112.596 128.063 112.524 127.877 112.56 127.87Z" fill="#263238"/>
<path d="M101.125 143.9C101.282 141.158 101.475 138.438 101.475 138.438C101.475 138.438 105.863 137.973 106.128 133.625C106.392 129.277 106.128 119.267 106.128 119.267L98.138 115.368L89.3333 122.016L90.2337 143.814C90.288 145.16 90.8409 146.438 91.7852 147.4C92.7294 148.362 93.9975 148.939 95.3436 149.019C96.0606 149.066 96.7799 148.971 97.4598 148.739C98.1396 148.506 98.7666 148.142 99.3044 147.665C99.8421 147.189 100.28 146.611 100.593 145.965C100.905 145.318 101.086 144.616 101.125 143.9Z" fill="#FFBE9D"/>
<path d="M105.256 126.571C105.256 126.681 105.223 126.789 105.162 126.88C105.101 126.972 105.014 127.043 104.912 127.085C104.81 127.128 104.698 127.139 104.59 127.117C104.482 127.096 104.382 127.043 104.304 126.965C104.226 126.887 104.173 126.788 104.152 126.679C104.13 126.571 104.141 126.459 104.184 126.358C104.226 126.256 104.297 126.169 104.389 126.108C104.481 126.047 104.588 126.014 104.699 126.014C104.846 126.014 104.988 126.073 105.093 126.177C105.197 126.281 105.256 126.423 105.256 126.571Z" fill="#263238"/>
<path d="M105.771 125.964C105.699 126.035 105.292 125.686 104.691 125.657C104.091 125.628 103.641 125.907 103.577 125.828C103.512 125.75 103.619 125.664 103.82 125.528C104.084 125.356 104.397 125.274 104.713 125.293C105.028 125.312 105.329 125.432 105.57 125.636C105.771 125.793 105.828 125.928 105.771 125.964Z" fill="#263238"/>
<path d="M98.8026 126.571C98.8035 126.644 98.79 126.716 98.7627 126.783C98.7355 126.851 98.6951 126.912 98.6439 126.964C98.5927 127.016 98.5318 127.057 98.4645 127.085C98.3973 127.113 98.3251 127.128 98.2523 127.128C98.1044 127.128 97.9626 127.069 97.8581 126.965C97.7536 126.86 97.6948 126.719 97.6948 126.571C97.6948 126.423 97.7536 126.281 97.8581 126.177C97.9626 126.073 98.1044 126.014 98.2523 126.014C98.3251 126.014 98.3973 126.028 98.4645 126.056C98.5318 126.085 98.5927 126.126 98.6439 126.177C98.6951 126.229 98.7355 126.291 98.7627 126.358C98.79 126.426 98.8035 126.498 98.8026 126.571Z" fill="#263238"/>
<path d="M99.1529 125.964C99.0814 126.035 98.6669 125.686 98.0666 125.657C97.4662 125.628 97.0232 125.907 96.9588 125.828C96.8945 125.75 97.0017 125.664 97.2018 125.528C97.4665 125.356 97.7797 125.274 98.095 125.293C98.4103 125.312 98.711 125.432 98.9528 125.636C99.1314 125.793 99.1886 125.928 99.1529 125.964Z" fill="#263238"/>
<path d="M101.311 130.983C101.631 130.901 101.96 130.86 102.29 130.862C102.44 130.862 102.597 130.862 102.633 130.719C102.655 130.555 102.625 130.387 102.547 130.241C102.412 129.834 102.276 129.434 102.14 129.006C101.854 128.135 101.604 127.335 101.425 126.757C101.312 126.448 101.237 126.127 101.204 125.8C101.365 126.084 101.492 126.386 101.583 126.699C101.79 127.271 102.061 128.063 102.347 128.941C102.476 129.363 102.605 129.77 102.74 130.177C102.829 130.371 102.847 130.591 102.79 130.798C102.737 130.881 102.661 130.947 102.571 130.988C102.481 131.028 102.381 131.042 102.283 131.026C101.958 131.046 101.633 131.031 101.311 130.983Z" fill="#263238"/>
<path d="M99.3386 131.583C98.7383 131.183 101.018 132.583 102.24 132.583C102.021 132.886 101.705 133.107 101.345 133.21C100.984 133.312 100.6 133.29 100.253 133.147C98.967 132.604 99.3386 131.583 99.3386 131.583Z" fill="white"/>
<path d="M101.483 138.437C99.416 138.349 97.4177 137.672 95.7224 136.488C95.7224 136.488 97.0302 139.68 101.39 139.501L101.483 138.437Z" fill="#EB996E"/>
<path d="M104.298 116.075C100.01 111.605 97.0302 112.505 95.3365 112.505C93.4764 112.713 91.6794 113.303 90.0585 114.238C88.4375 115.173 87.0276 116.433 85.9172 117.939C84.7165 119.188 83.0013 123.258 82.8012 124.693C82.7226 126.142 82.737 127.594 82.8441 129.041C82.8441 130.469 82.5011 132.054 81.4148 133.018C80.7001 133.625 79.7567 133.975 79.3422 134.796C79.152 135.299 79.1435 135.852 79.3184 136.361C79.4932 136.869 79.8404 137.301 80.2999 137.581C81.2424 138.11 82.3267 138.332 83.4015 138.216C83.3144 139.297 83.6314 140.372 84.2914 141.233C84.9514 142.095 85.9075 142.681 86.9749 142.879C88.0633 143.022 89.165 142.738 90.0479 142.086C90.7782 142.795 91.5515 143.458 92.3635 144.071C92.5445 137.75 92.4111 131.431 91.9632 125.114C94.8648 124.6 100.068 123.037 100.975 118.396C102.133 121.037 103.891 122.48 106.228 124.479C106.242 124.486 108.629 120.552 104.298 116.075Z" fill="#263238"/>
<path d="M92.2991 123.443C92.8899 123.369 93.4877 123.369 94.0786 123.443C95.4722 123.596 96.8823 123.43 98.2022 122.958C98.8996 122.671 99.4981 122.187 99.9246 121.566C100.272 121.046 100.515 120.464 100.639 119.852C100.846 118.802 100.746 118.117 100.811 118.11C100.993 118.69 101.027 119.306 100.911 119.902C100.824 120.561 100.597 121.194 100.246 121.758C99.7947 122.452 99.1448 122.995 98.3809 123.315C97.0095 123.813 95.5329 123.951 94.0929 123.715C93.4877 123.681 92.8871 123.59 92.2991 123.443Z" fill="#263238"/>
<path d="M80.9788 134.075C81.2208 134.081 81.4622 134.047 81.6934 133.975C81.9949 133.856 82.2611 133.663 82.4674 133.413C82.6736 133.163 82.813 132.865 82.8726 132.547C82.9897 131.577 82.8051 130.595 82.3438 129.734C82.0947 129.187 81.8892 128.621 81.7292 128.042C81.577 127.404 81.5359 126.744 81.6077 126.093C81.7547 124.84 82.1981 123.641 82.9012 122.594C83.4665 121.751 84.1258 120.975 84.8665 120.281C85.4883 119.681 86.0243 119.238 86.3959 118.938C86.5759 118.764 86.7806 118.617 87.0034 118.503C87.0463 118.553 86.2887 119.26 85.0595 120.473C84.3633 121.177 83.7407 121.95 83.2014 122.78C82.5496 123.79 82.1343 124.935 81.9864 126.128C81.9243 126.739 81.9605 127.356 82.0936 127.956C82.2456 128.517 82.4391 129.066 82.6725 129.598C83.1476 130.527 83.3105 131.583 83.1371 132.611C83.0564 132.96 82.885 133.28 82.6403 133.541C82.3956 133.802 82.0862 133.994 81.7435 134.096C81.5555 134.141 81.3597 134.141 81.1717 134.096C81.0359 134.118 80.9788 134.089 80.9788 134.075Z" fill="#263238"/>
<path d="M104.87 315.738V314.31L93.5713 314.096V318.501L94.286 318.544C97.3948 318.722 110.102 319.215 112.153 318.587C114.44 317.901 104.87 315.738 104.87 315.738Z" fill="#FF725E"/>
<g opacity="0.6">
<path d="M97.6019 318.573C97.4356 317.625 96.927 316.771 96.1725 316.174C95.4279 315.579 94.4865 315.285 93.5354 315.352V318.494L97.6019 318.573Z" fill="white"/>
</g>
<g opacity="0.6">
<path d="M109.53 316.959C109.53 316.959 112.881 317.923 112.467 318.48C112.052 319.037 99.1813 319.008 93.5068 318.48V318.23L108.515 318.373C108.515 318.373 108.872 317.016 109.53 316.959Z" fill="white"/>
</g>
<path d="M93.4497 318.166H93.6427L94.2001 318.201L96.2441 318.294C97.9735 318.358 100.368 318.415 103.005 318.423C105.642 318.43 108.007 318.38 109.766 318.323L111.817 318.237H112.374H112.567H111.809L109.766 318.273C108.036 318.273 105.642 318.337 103.005 318.337C100.368 318.337 98.0021 318.287 96.2441 318.244L94.2001 318.201H93.6427L93.4497 318.166Z" fill="#263238"/>
<path d="M108.529 318.622C108.622 318.283 108.751 317.955 108.915 317.644C109.122 317.355 109.362 317.092 109.63 316.859C109.281 316.991 108.991 317.244 108.815 317.573C108.598 317.878 108.497 318.25 108.529 318.622Z" fill="#263238"/>
<path d="M104.992 316.666C105.027 316.666 105.185 316.495 105.349 316.238C105.467 316.09 105.551 315.916 105.592 315.731C105.556 315.731 105.399 315.902 105.235 316.166C105.07 316.431 104.963 316.645 104.992 316.666Z" fill="#263238"/>
<path d="M104.084 316.188C104.084 316.188 104.284 316.095 104.477 315.924C104.67 315.752 104.813 315.581 104.784 315.552C104.756 315.524 104.584 315.645 104.391 315.816C104.198 315.988 104.055 316.159 104.084 316.188Z" fill="#263238"/>
<path d="M103.505 315.124C103.695 315.192 103.898 315.216 104.098 315.195C104.295 315.22 104.496 315.201 104.684 315.138C104.497 315.072 104.297 315.045 104.098 315.06C103.77 315.06 103.505 315.081 103.505 315.124Z" fill="#263238"/>
<path d="M103.312 314.374C103.507 314.503 103.736 314.57 103.97 314.567C104.198 314.606 104.432 314.574 104.641 314.474C104.421 314.442 104.199 314.428 103.977 314.431C103.757 314.392 103.535 314.373 103.312 314.374Z" fill="#263238"/>
<path d="M105.377 315.688C105.614 315.73 105.856 315.73 106.092 315.688C106.354 315.659 106.613 315.604 106.864 315.524C107.018 315.479 107.167 315.417 107.307 315.338C107.393 315.29 107.457 315.211 107.486 315.117C107.496 315.063 107.492 315.007 107.473 314.955C107.454 314.904 107.422 314.858 107.379 314.824C107.102 314.688 106.787 314.652 106.487 314.723C106.188 314.793 105.922 314.965 105.735 315.21C105.623 315.353 105.542 315.518 105.499 315.695C105.485 315.759 105.485 315.824 105.499 315.888C105.576 315.666 105.69 315.459 105.835 315.274C105.995 315.082 106.209 314.943 106.449 314.874C106.734 314.778 107.045 314.799 107.314 314.931C107.429 315.017 107.386 315.153 107.257 315.231C107.126 315.299 106.99 315.356 106.85 315.402C106.605 315.487 106.354 315.551 106.099 315.595C105.656 315.667 105.377 315.667 105.377 315.688Z" fill="#263238"/>
<path d="M105.563 315.724C105.656 315.575 105.687 315.395 105.649 315.224C105.628 315.035 105.561 314.854 105.456 314.695C105.396 314.586 105.309 314.494 105.202 314.429C105.095 314.364 104.974 314.328 104.849 314.324C104.775 314.34 104.71 314.384 104.669 314.446C104.627 314.509 104.612 314.586 104.627 314.66C104.646 314.774 104.687 314.883 104.749 314.981C104.843 315.141 104.958 315.288 105.092 315.417C105.204 315.546 105.346 315.647 105.506 315.709C105.506 315.709 105.363 315.581 105.163 315.352C105.046 315.218 104.943 315.072 104.856 314.917C104.763 314.767 104.691 314.488 104.856 314.46C105.02 314.431 105.22 314.617 105.328 314.767C105.431 314.907 105.501 315.068 105.535 315.238C105.559 315.399 105.569 315.561 105.563 315.724Z" fill="#263238"/>
<path d="M93.3711 315.302C93.3711 315.302 93.6927 315.302 94.2073 315.302C94.8692 315.383 95.4968 315.642 96.0225 316.052C96.5398 316.473 96.9306 317.029 97.1517 317.659C97.3232 318.137 97.3375 318.465 97.3661 318.458C97.38 318.385 97.38 318.31 97.3661 318.237C97.3474 318.031 97.3067 317.827 97.2446 317.63C97.0372 316.97 96.6424 316.385 96.1083 315.945C95.563 315.522 94.9031 315.274 94.2144 315.231C94.0078 315.208 93.7993 315.208 93.5926 315.231C93.5156 315.243 93.4409 315.267 93.3711 315.302Z" fill="#263238"/>
<path d="M98.8025 317.109C99.8899 317.316 101.005 317.328 102.097 317.144C102.097 317.102 101.382 317.144 100.446 317.144C99.51 317.144 98.8096 317.066 98.8025 317.109Z" fill="#263238"/>
<path d="M96.5942 317.102C96.5942 317.102 96.6514 317.252 96.73 317.423C96.8086 317.594 96.8444 317.744 96.8801 317.737C96.9158 317.73 96.9444 317.559 96.8801 317.366C96.8158 317.173 96.6157 317.073 96.5942 317.102Z" fill="#263238"/>
<path d="M95.7651 316.066C95.7651 316.066 95.808 316.209 95.9224 316.323C96.0367 316.438 96.1582 316.516 96.1868 316.495C96.2154 316.473 96.1368 316.345 96.0224 316.231C95.9081 316.116 95.7651 316.038 95.7651 316.066Z" fill="#263238"/>
<path d="M94.5717 315.588C94.5717 315.631 94.729 315.624 94.8933 315.688C95.0577 315.752 95.1792 315.831 95.2078 315.809C95.2364 315.788 95.1435 315.624 94.9434 315.552C94.7433 315.481 94.5646 315.588 94.5717 315.588Z" fill="#263238"/>
<path d="M93.7285 315.367C93.7285 315.402 93.7786 315.459 93.8715 315.495C93.9644 315.531 94.0501 315.531 94.0644 315.495C94.0787 315.459 94.0144 315.402 93.9215 315.367C93.8286 315.331 93.7428 315.331 93.7285 315.367Z" fill="#263238"/>
<path opacity="0.3" d="M81.1003 182.106C81.1003 182.106 82.3867 192.009 92.0347 191.652C98.4879 191.362 104.915 190.646 111.274 189.51L111.174 187.632L81.1003 182.106Z" fill="black"/>
<path d="M136.987 175.815C136.13 174.437 130.234 177.722 129.712 177.957C129.19 178.193 128.826 177.45 129.305 177.243C130.019 176.965 137.166 173.88 136.358 172.524C135.901 171.81 134.629 172.717 134.629 172.717C134.629 172.717 128.111 176.101 127.747 175.444C127.382 174.787 131.127 172.667 132.442 172.045C133.757 171.424 133.986 170.56 133.228 170.21C132.721 169.975 128.64 171.788 127.354 172.431C126.067 173.074 122.558 174.916 123.552 172.609C124.545 170.303 124.431 168.154 123.995 167.611C123.882 167.493 123.734 167.413 123.573 167.382C123.413 167.352 123.246 167.372 123.097 167.44C122.949 167.509 122.825 167.622 122.744 167.764C122.662 167.906 122.627 168.07 122.644 168.233C122.58 169.077 122.4 169.908 122.108 170.703C121.898 171.352 121.579 171.96 121.165 172.502C120.679 173.138 120.243 173.652 119.857 174.08C116.098 175.394 105.37 178.714 95.3508 177.8C93.5355 177.636 88.9188 165.527 88.9188 165.527L76.4407 171.953C76.4407 171.953 76.212 172.631 81.9008 183.691C89.6478 198.749 124.645 183.127 124.645 183.127V183.091C127.299 182.565 129.923 181.898 132.506 181.092C136.022 179.821 135.915 179.5 135.694 179.121C135.108 178.086 129.419 181.12 130.262 179.757C131.106 178.393 137.645 176.865 136.987 175.815Z" fill="#FFBE9D"/>
</svg>
